ISO-10303-21;
HEADER;
/* Generated by software containing ST-Developer
 * from STEP Tools, Inc. (www.steptools.com) 
 */

FILE_DESCRIPTION(
/* description */ (''),
/* implementation_level */ '2;1');

FILE_NAME(
/* name */ 'PCB_CASE.step',
/* time_stamp */ '2026-02-26T16:11:14+05:30',
/* author */ (''),
/* organization */ (''),
/* preprocessor_version */ 'ST-DEVELOPER v20.1',
/* originating_system */ 'Autodesk Translation Framework v14.24.0.0',
/* authorisation */ '');

FILE_SCHEMA (('AUTOMOTIVE_DESIGN { 1 0 10303 214 3 1 1 }'));
ENDSEC;

DATA;
#10=MECHANICAL_DESIGN_GEOMETRIC_PRESENTATION_REPRESENTATION('',(#13,#14,
#15),#1637);
#11=SHAPE_REPRESENTATION_RELATIONSHIP('SRR','None',#1644,#12);
#12=ADVANCED_BREP_SHAPE_REPRESENTATION('',(#16,#17,#18),#1636);
#13=STYLED_ITEM('',(#1653),#16);
#14=STYLED_ITEM('',(#1653),#17);
#15=STYLED_ITEM('',(#1653),#18);
#16=MANIFOLD_SOLID_BREP('Body1',#999);
#17=MANIFOLD_SOLID_BREP('Body5',#1000);
#18=MANIFOLD_SOLID_BREP('Body6',#1001);
#19=CYLINDRICAL_SURFACE('',#1024,2.75);
#20=CYLINDRICAL_SURFACE('',#1038,2.75);
#21=CYLINDRICAL_SURFACE('',#1049,3.);
#22=CYLINDRICAL_SURFACE('',#1051,3.);
#23=CYLINDRICAL_SURFACE('',#1053,3.);
#24=CYLINDRICAL_SURFACE('',#1055,3.);
#25=CYLINDRICAL_SURFACE('',#1063,2.35);
#26=CYLINDRICAL_SURFACE('',#1066,2.35);
#27=CYLINDRICAL_SURFACE('',#1069,2.35);
#28=CYLINDRICAL_SURFACE('',#1072,2.35);
#29=CYLINDRICAL_SURFACE('',#1075,2.74999999999999);
#30=CYLINDRICAL_SURFACE('',#1084,2.75);
#31=FACE_BOUND('',#130,.T.);
#32=FACE_BOUND('',#132,.T.);
#33=FACE_BOUND('',#133,.T.);
#34=FACE_BOUND('',#134,.T.);
#35=FACE_BOUND('',#136,.T.);
#36=FACE_BOUND('',#142,.T.);
#37=FACE_BOUND('',#143,.T.);
#38=FACE_BOUND('',#144,.T.);
#39=FACE_BOUND('',#145,.T.);
#40=FACE_BOUND('',#146,.T.);
#41=FACE_BOUND('',#147,.T.);
#42=FACE_BOUND('',#150,.T.);
#43=FACE_BOUND('',#175,.T.);
#44=FACE_BOUND('',#178,.T.);
#45=FACE_BOUND('',#181,.T.);
#46=FACE_BOUND('',#184,.T.);
#47=FACE_BOUND('',#191,.T.);
#48=FACE_BOUND('',#193,.T.);
#49=FACE_BOUND('',#200,.T.);
#50=FACE_BOUND('',#202,.T.);
#51=CIRCLE('',#1016,2.35);
#52=CIRCLE('',#1018,2.35);
#53=CIRCLE('',#1019,2.35);
#54=CIRCLE('',#1020,2.35);
#55=CIRCLE('',#1022,2.75);
#56=CIRCLE('',#1025,2.75);
#57=CIRCLE('',#1029,3.);
#58=CIRCLE('',#1030,3.);
#59=CIRCLE('',#1031,3.);
#60=CIRCLE('',#1032,3.);
#61=CIRCLE('',#1033,2.75);
#62=CIRCLE('',#1036,2.75);
#63=CIRCLE('',#1050,3.);
#64=CIRCLE('',#1052,3.);
#65=CIRCLE('',#1054,3.);
#66=CIRCLE('',#1056,3.);
#67=CIRCLE('',#1064,2.35);
#68=CIRCLE('',#1067,2.35);
#69=CIRCLE('',#1070,2.35);
#70=CIRCLE('',#1073,2.35);
#71=CIRCLE('',#1076,2.74999999999999);
#72=CIRCLE('',#1077,2.74999999999999);
#73=CIRCLE('',#1085,2.75);
#74=CIRCLE('',#1086,2.75);
#75=FACE_OUTER_BOUND('',#129,.T.);
#76=FACE_OUTER_BOUND('',#131,.T.);
#77=FACE_OUTER_BOUND('',#135,.T.);
#78=FACE_OUTER_BOUND('',#137,.T.);
#79=FACE_OUTER_BOUND('',#138,.T.);
#80=FACE_OUTER_BOUND('',#139,.T.);
#81=FACE_OUTER_BOUND('',#140,.T.);
#82=FACE_OUTER_BOUND('',#141,.T.);
#83=FACE_OUTER_BOUND('',#148,.T.);
#84=FACE_OUTER_BOUND('',#149,.T.);
#85=FACE_OUTER_BOUND('',#151,.T.);
#86=FACE_OUTER_BOUND('',#152,.T.);
#87=FACE_OUTER_BOUND('',#153,.T.);
#88=FACE_OUTER_BOUND('',#154,.T.);
#89=FACE_OUTER_BOUND('',#155,.T.);
#90=FACE_OUTER_BOUND('',#156,.T.);
#91=FACE_OUTER_BOUND('',#157,.T.);
#92=FACE_OUTER_BOUND('',#158,.T.);
#93=FACE_OUTER_BOUND('',#159,.T.);
#94=FACE_OUTER_BOUND('',#160,.T.);
#95=FACE_OUTER_BOUND('',#161,.T.);
#96=FACE_OUTER_BOUND('',#162,.T.);
#97=FACE_OUTER_BOUND('',#163,.T.);
#98=FACE_OUTER_BOUND('',#164,.T.);
#99=FACE_OUTER_BOUND('',#165,.T.);
#100=FACE_OUTER_BOUND('',#166,.T.);
#101=FACE_OUTER_BOUND('',#167,.T.);
#102=FACE_OUTER_BOUND('',#168,.T.);
#103=FACE_OUTER_BOUND('',#169,.T.);
#104=FACE_OUTER_BOUND('',#170,.T.);
#105=FACE_OUTER_BOUND('',#171,.T.);
#106=FACE_OUTER_BOUND('',#172,.T.);
#107=FACE_OUTER_BOUND('',#173,.T.);
#108=FACE_OUTER_BOUND('',#174,.T.);
#109=FACE_OUTER_BOUND('',#176,.T.);
#110=FACE_OUTER_BOUND('',#177,.T.);
#111=FACE_OUTER_BOUND('',#179,.T.);
#112=FACE_OUTER_BOUND('',#180,.T.);
#113=FACE_OUTER_BOUND('',#182,.T.);
#114=FACE_OUTER_BOUND('',#183,.T.);
#115=FACE_OUTER_BOUND('',#185,.T.);
#116=FACE_OUTER_BOUND('',#186,.T.);
#117=FACE_OUTER_BOUND('',#187,.T.);
#118=FACE_OUTER_BOUND('',#188,.T.);
#119=FACE_OUTER_BOUND('',#189,.T.);
#120=FACE_OUTER_BOUND('',#190,.T.);
#121=FACE_OUTER_BOUND('',#192,.T.);
#122=FACE_OUTER_BOUND('',#194,.T.);
#123=FACE_OUTER_BOUND('',#195,.T.);
#124=FACE_OUTER_BOUND('',#196,.T.);
#125=FACE_OUTER_BOUND('',#197,.T.);
#126=FACE_OUTER_BOUND('',#198,.T.);
#127=FACE_OUTER_BOUND('',#199,.T.);
#128=FACE_OUTER_BOUND('',#201,.T.);
#129=EDGE_LOOP('',(#639,#640,#641,#642,#643,#644));
#130=EDGE_LOOP('',(#645));
#131=EDGE_LOOP('',(#646,#647,#648,#649,#650,#651,#652,#653,#654,#655));
#132=EDGE_LOOP('',(#656));
#133=EDGE_LOOP('',(#657));
#134=EDGE_LOOP('',(#658));
#135=EDGE_LOOP('',(#659,#660,#661,#662));
#136=EDGE_LOOP('',(#663));
#137=EDGE_LOOP('',(#664,#665,#666,#667));
#138=EDGE_LOOP('',(#668,#669,#670,#671));
#139=EDGE_LOOP('',(#672,#673,#674,#675));
#140=EDGE_LOOP('',(#676,#677,#678,#679));
#141=EDGE_LOOP('',(#680,#681,#682,#683,#684,#685,#686,#687,#688,#689,#690,
#691));
#142=EDGE_LOOP('',(#692));
#143=EDGE_LOOP('',(#693));
#144=EDGE_LOOP('',(#694));
#145=EDGE_LOOP('',(#695));
#146=EDGE_LOOP('',(#696));
#147=EDGE_LOOP('',(#697));
#148=EDGE_LOOP('',(#698,#699,#700,#701));
#149=EDGE_LOOP('',(#702,#703,#704,#705));
#150=EDGE_LOOP('',(#706));
#151=EDGE_LOOP('',(#707,#708,#709,#710));
#152=EDGE_LOOP('',(#711,#712,#713,#714));
#153=EDGE_LOOP('',(#715,#716,#717,#718));
#154=EDGE_LOOP('',(#719,#720,#721,#722));
#155=EDGE_LOOP('',(#723,#724,#725,#726));
#156=EDGE_LOOP('',(#727,#728,#729,#730));
#157=EDGE_LOOP('',(#731,#732,#733,#734));
#158=EDGE_LOOP('',(#735,#736,#737,#738));
#159=EDGE_LOOP('',(#739,#740,#741,#742));
#160=EDGE_LOOP('',(#743,#744,#745,#746,#747,#748,#749,#750));
#161=EDGE_LOOP('',(#751,#752,#753,#754,#755,#756,#757,#758));
#162=EDGE_LOOP('',(#759,#760,#761,#762));
#163=EDGE_LOOP('',(#763,#764,#765,#766));
#164=EDGE_LOOP('',(#767,#768,#769,#770));
#165=EDGE_LOOP('',(#771,#772,#773,#774));
#166=EDGE_LOOP('',(#775,#776,#777,#778));
#167=EDGE_LOOP('',(#779,#780,#781,#782));
#168=EDGE_LOOP('',(#783,#784,#785,#786));
#169=EDGE_LOOP('',(#787,#788,#789,#790));
#170=EDGE_LOOP('',(#791,#792,#793,#794,#795,#796,#797,#798));
#171=EDGE_LOOP('',(#799,#800,#801,#802,#803,#804,#805,#806,#807,#808,#809,
#810,#811,#812,#813,#814));
#172=EDGE_LOOP('',(#815,#816,#817,#818));
#173=EDGE_LOOP('',(#819,#820,#821,#822));
#174=EDGE_LOOP('',(#823));
#175=EDGE_LOOP('',(#824));
#176=EDGE_LOOP('',(#825,#826,#827,#828));
#177=EDGE_LOOP('',(#829));
#178=EDGE_LOOP('',(#830));
#179=EDGE_LOOP('',(#831,#832,#833,#834));
#180=EDGE_LOOP('',(#835));
#181=EDGE_LOOP('',(#836));
#182=EDGE_LOOP('',(#837,#838,#839,#840));
#183=EDGE_LOOP('',(#841));
#184=EDGE_LOOP('',(#842));
#185=EDGE_LOOP('',(#843,#844,#845,#846));
#186=EDGE_LOOP('',(#847,#848,#849,#850));
#187=EDGE_LOOP('',(#851,#852,#853,#854));
#188=EDGE_LOOP('',(#855,#856,#857,#858));
#189=EDGE_LOOP('',(#859,#860,#861,#862));
#190=EDGE_LOOP('',(#863,#864,#865,#866));
#191=EDGE_LOOP('',(#867));
#192=EDGE_LOOP('',(#868,#869,#870,#871));
#193=EDGE_LOOP('',(#872));
#194=EDGE_LOOP('',(#873,#874,#875,#876));
#195=EDGE_LOOP('',(#877,#878,#879,#880));
#196=EDGE_LOOP('',(#881,#882,#883,#884));
#197=EDGE_LOOP('',(#885,#886,#887,#888));
#198=EDGE_LOOP('',(#889,#890,#891,#892));
#199=EDGE_LOOP('',(#893,#894,#895,#896));
#200=EDGE_LOOP('',(#897));
#201=EDGE_LOOP('',(#898,#899,#900,#901));
#202=EDGE_LOOP('',(#902));
#203=LINE('',#1363,#311);
#204=LINE('',#1365,#312);
#205=LINE('',#1367,#313);
#206=LINE('',#1369,#314);
#207=LINE('',#1371,#315);
#208=LINE('',#1372,#316);
#209=LINE('',#1378,#317);
#210=LINE('',#1380,#318);
#211=LINE('',#1382,#319);
#212=LINE('',#1384,#320);
#213=LINE('',#1386,#321);
#214=LINE('',#1388,#322);
#215=LINE('',#1390,#323);
#216=LINE('',#1392,#324);
#217=LINE('',#1394,#325);
#218=LINE('',#1395,#326);
#219=LINE('',#1405,#327);
#220=LINE('',#1407,#328);
#221=LINE('',#1409,#329);
#222=LINE('',#1410,#330);
#223=LINE('',#1415,#331);
#224=LINE('',#1417,#332);
#225=LINE('',#1418,#333);
#226=LINE('',#1421,#334);
#227=LINE('',#1425,#335);
#228=LINE('',#1427,#336);
#229=LINE('',#1428,#337);
#230=LINE('',#1430,#338);
#231=LINE('',#1433,#339);
#232=LINE('',#1435,#340);
#233=LINE('',#1437,#341);
#234=LINE('',#1439,#342);
#235=LINE('',#1441,#343);
#236=LINE('',#1443,#344);
#237=LINE('',#1445,#345);
#238=LINE('',#1447,#346);
#239=LINE('',#1448,#347);
#240=LINE('',#1461,#348);
#241=LINE('',#1463,#349);
#242=LINE('',#1464,#350);
#243=LINE('',#1467,#351);
#244=LINE('',#1469,#352);
#245=LINE('',#1470,#353);
#246=LINE('',#1474,#354);
#247=LINE('',#1475,#355);
#248=LINE('',#1477,#356);
#249=LINE('',#1481,#357);
#250=LINE('',#1483,#358);
#251=LINE('',#1484,#359);
#252=LINE('',#1487,#360);
#253=LINE('',#1489,#361);
#254=LINE('',#1490,#362);
#255=LINE('',#1492,#363);
#256=LINE('',#1493,#364);
#257=LINE('',#1496,#365);
#258=LINE('',#1498,#366);
#259=LINE('',#1499,#367);
#260=LINE('',#1502,#368);
#261=LINE('',#1504,#369);
#262=LINE('',#1505,#370);
#263=LINE('',#1507,#371);
#264=LINE('',#1508,#372);
#265=LINE('',#1511,#373);
#266=LINE('',#1513,#374);
#267=LINE('',#1514,#375);
#268=LINE('',#1517,#376);
#269=LINE('',#1518,#377);
#270=LINE('',#1521,#378);
#271=LINE('',#1522,#379);
#272=LINE('',#1526,#380);
#273=LINE('',#1530,#381);
#274=LINE('',#1534,#382);
#275=LINE('',#1538,#383);
#276=LINE('',#1540,#384);
#277=LINE('',#1543,#385);
#278=LINE('',#1544,#386);
#279=LINE('',#1546,#387);
#280=LINE('',#1548,#388);
#281=LINE('',#1552,#389);
#282=LINE('',#1557,#390);
#283=LINE('',#1562,#391);
#284=LINE('',#1567,#392);
#285=LINE('',#1574,#393);
#286=LINE('',#1579,#394);
#287=LINE('',#1581,#395);
#288=LINE('',#1583,#396);
#289=LINE('',#1584,#397);
#290=LINE('',#1587,#398);
#291=LINE('',#1589,#399);
#292=LINE('',#1590,#400);
#293=LINE('',#1593,#401);
#294=LINE('',#1595,#402);
#295=LINE('',#1596,#403);
#296=LINE('',#1598,#404);
#297=LINE('',#1599,#405);
#298=LINE('',#1606,#406);
#299=LINE('',#1611,#407);
#300=LINE('',#1613,#408);
#301=LINE('',#1615,#409);
#302=LINE('',#1616,#410);
#303=LINE('',#1619,#411);
#304=LINE('',#1621,#412);
#305=LINE('',#1622,#413);
#306=LINE('',#1625,#414);
#307=LINE('',#1627,#415);
#308=LINE('',#1628,#416);
#309=LINE('',#1630,#417);
#310=LINE('',#1631,#418);
#311=VECTOR('',#1097,10.);
#312=VECTOR('',#1098,10.);
#313=VECTOR('',#1099,10.);
#314=VECTOR('',#1100,10.);
#315=VECTOR('',#1101,10.);
#316=VECTOR('',#1102,10.);
#317=VECTOR('',#1107,10.);
#318=VECTOR('',#1108,10.);
#319=VECTOR('',#1109,10.);
#320=VECTOR('',#1110,10.);
#321=VECTOR('',#1111,10.);
#322=VECTOR('',#1112,10.);
#323=VECTOR('',#1113,10.);
#324=VECTOR('',#1114,10.);
#325=VECTOR('',#1115,10.);
#326=VECTOR('',#1116,10.);
#327=VECTOR('',#1125,10.);
#328=VECTOR('',#1126,10.);
#329=VECTOR('',#1127,10.);
#330=VECTOR('',#1128,10.);
#331=VECTOR('',#1133,10.);
#332=VECTOR('',#1134,10.);
#333=VECTOR('',#1135,10.);
#334=VECTOR('',#1138,2.75);
#335=VECTOR('',#1143,10.);
#336=VECTOR('',#1144,10.);
#337=VECTOR('',#1145,10.);
#338=VECTOR('',#1148,10.);
#339=VECTOR('',#1151,10.);
#340=VECTOR('',#1152,10.);
#341=VECTOR('',#1153,10.);
#342=VECTOR('',#1154,10.);
#343=VECTOR('',#1155,10.);
#344=VECTOR('',#1156,10.);
#345=VECTOR('',#1157,10.);
#346=VECTOR('',#1158,10.);
#347=VECTOR('',#1159,10.);
#348=VECTOR('',#1172,10.);
#349=VECTOR('',#1173,10.);
#350=VECTOR('',#1174,10.);
#351=VECTOR('',#1177,10.);
#352=VECTOR('',#1178,10.);
#353=VECTOR('',#1179,10.);
#354=VECTOR('',#1184,10.);
#355=VECTOR('',#1185,10.);
#356=VECTOR('',#1188,2.75);
#357=VECTOR('',#1193,10.);
#358=VECTOR('',#1194,10.);
#359=VECTOR('',#1195,10.);
#360=VECTOR('',#1198,10.);
#361=VECTOR('',#1199,10.);
#362=VECTOR('',#1200,10.);
#363=VECTOR('',#1203,10.);
#364=VECTOR('',#1204,10.);
#365=VECTOR('',#1207,10.);
#366=VECTOR('',#1208,10.);
#367=VECTOR('',#1209,10.);
#368=VECTOR('',#1212,10.);
#369=VECTOR('',#1213,10.);
#370=VECTOR('',#1214,10.);
#371=VECTOR('',#1217,10.);
#372=VECTOR('',#1218,10.);
#373=VECTOR('',#1221,10.);
#374=VECTOR('',#1222,10.);
#375=VECTOR('',#1223,10.);
#376=VECTOR('',#1226,10.);
#377=VECTOR('',#1227,10.);
#378=VECTOR('',#1230,10.);
#379=VECTOR('',#1231,10.);
#380=VECTOR('',#1236,3.);
#381=VECTOR('',#1241,3.);
#382=VECTOR('',#1246,3.);
#383=VECTOR('',#1251,3.);
#384=VECTOR('',#1254,10.);
#385=VECTOR('',#1259,10.);
#386=VECTOR('',#1260,10.);
#387=VECTOR('',#1263,10.);
#388=VECTOR('',#1266,10.);
#389=VECTOR('',#1271,2.35);
#390=VECTOR('',#1278,2.35);
#391=VECTOR('',#1285,2.35);
#392=VECTOR('',#1292,2.35);
#393=VECTOR('',#1301,2.74999999999999);
#394=VECTOR('',#1306,10.);
#395=VECTOR('',#1307,10.);
#396=VECTOR('',#1308,10.);
#397=VECTOR('',#1309,10.);
#398=VECTOR('',#1312,10.);
#399=VECTOR('',#1313,10.);
#400=VECTOR('',#1314,10.);
#401=VECTOR('',#1317,10.);
#402=VECTOR('',#1318,10.);
#403=VECTOR('',#1319,10.);
#404=VECTOR('',#1322,10.);
#405=VECTOR('',#1323,10.);
#406=VECTOR('',#1332,2.75);
#407=VECTOR('',#1337,10.);
#408=VECTOR('',#1338,10.);
#409=VECTOR('',#1339,10.);
#410=VECTOR('',#1340,10.);
#411=VECTOR('',#1343,10.);
#412=VECTOR('',#1344,10.);
#413=VECTOR('',#1345,10.);
#414=VECTOR('',#1348,10.);
#415=VECTOR('',#1349,10.);
#416=VECTOR('',#1350,10.);
#417=VECTOR('',#1353,10.);
#418=VECTOR('',#1354,10.);
#419=VERTEX_POINT('',#1361);
#420=VERTEX_POINT('',#1362);
#421=VERTEX_POINT('',#1364);
#422=VERTEX_POINT('',#1366);
#423=VERTEX_POINT('',#1368);
#424=VERTEX_POINT('',#1370);
#425=VERTEX_POINT('',#1373);
#426=VERTEX_POINT('',#1376);
#427=VERTEX_POINT('',#1377);
#428=VERTEX_POINT('',#1379);
#429=VERTEX_POINT('',#1381);
#430=VERTEX_POINT('',#1383);
#431=VERTEX_POINT('',#1385);
#432=VERTEX_POINT('',#1387);
#433=VERTEX_POINT('',#1389);
#434=VERTEX_POINT('',#1391);
#435=VERTEX_POINT('',#1393);
#436=VERTEX_POINT('',#1396);
#437=VERTEX_POINT('',#1398);
#438=VERTEX_POINT('',#1400);
#439=VERTEX_POINT('',#1403);
#440=VERTEX_POINT('',#1404);
#441=VERTEX_POINT('',#1406);
#442=VERTEX_POINT('',#1408);
#443=VERTEX_POINT('',#1411);
#444=VERTEX_POINT('',#1414);
#445=VERTEX_POINT('',#1416);
#446=VERTEX_POINT('',#1420);
#447=VERTEX_POINT('',#1424);
#448=VERTEX_POINT('',#1426);
#449=VERTEX_POINT('',#1432);
#450=VERTEX_POINT('',#1434);
#451=VERTEX_POINT('',#1436);
#452=VERTEX_POINT('',#1438);
#453=VERTEX_POINT('',#1440);
#454=VERTEX_POINT('',#1442);
#455=VERTEX_POINT('',#1444);
#456=VERTEX_POINT('',#1446);
#457=VERTEX_POINT('',#1449);
#458=VERTEX_POINT('',#1451);
#459=VERTEX_POINT('',#1453);
#460=VERTEX_POINT('',#1455);
#461=VERTEX_POINT('',#1457);
#462=VERTEX_POINT('',#1460);
#463=VERTEX_POINT('',#1462);
#464=VERTEX_POINT('',#1466);
#465=VERTEX_POINT('',#1468);
#466=VERTEX_POINT('',#1471);
#467=VERTEX_POINT('',#1480);
#468=VERTEX_POINT('',#1482);
#469=VERTEX_POINT('',#1486);
#470=VERTEX_POINT('',#1488);
#471=VERTEX_POINT('',#1495);
#472=VERTEX_POINT('',#1497);
#473=VERTEX_POINT('',#1501);
#474=VERTEX_POINT('',#1503);
#475=VERTEX_POINT('',#1510);
#476=VERTEX_POINT('',#1512);
#477=VERTEX_POINT('',#1516);
#478=VERTEX_POINT('',#1520);
#479=VERTEX_POINT('',#1524);
#480=VERTEX_POINT('',#1528);
#481=VERTEX_POINT('',#1532);
#482=VERTEX_POINT('',#1536);
#483=VERTEX_POINT('',#1551);
#484=VERTEX_POINT('',#1556);
#485=VERTEX_POINT('',#1561);
#486=VERTEX_POINT('',#1566);
#487=VERTEX_POINT('',#1571);
#488=VERTEX_POINT('',#1573);
#489=VERTEX_POINT('',#1577);
#490=VERTEX_POINT('',#1578);
#491=VERTEX_POINT('',#1580);
#492=VERTEX_POINT('',#1582);
#493=VERTEX_POINT('',#1586);
#494=VERTEX_POINT('',#1588);
#495=VERTEX_POINT('',#1592);
#496=VERTEX_POINT('',#1594);
#497=VERTEX_POINT('',#1603);
#498=VERTEX_POINT('',#1605);
#499=VERTEX_POINT('',#1609);
#500=VERTEX_POINT('',#1610);
#501=VERTEX_POINT('',#1612);
#502=VERTEX_POINT('',#1614);
#503=VERTEX_POINT('',#1618);
#504=VERTEX_POINT('',#1620);
#505=VERTEX_POINT('',#1624);
#506=VERTEX_POINT('',#1626);
#507=EDGE_CURVE('',#419,#420,#203,.T.);
#508=EDGE_CURVE('',#420,#421,#204,.T.);
#509=EDGE_CURVE('',#421,#422,#205,.T.);
#510=EDGE_CURVE('',#422,#423,#206,.T.);
#511=EDGE_CURVE('',#423,#424,#207,.T.);
#512=EDGE_CURVE('',#424,#419,#208,.T.);
#513=EDGE_CURVE('',#425,#425,#51,.T.);
#514=EDGE_CURVE('',#426,#427,#209,.T.);
#515=EDGE_CURVE('',#427,#428,#210,.T.);
#516=EDGE_CURVE('',#428,#429,#211,.T.);
#517=EDGE_CURVE('',#429,#430,#212,.T.);
#518=EDGE_CURVE('',#430,#431,#213,.T.);
#519=EDGE_CURVE('',#431,#432,#214,.T.);
#520=EDGE_CURVE('',#432,#433,#215,.T.);
#521=EDGE_CURVE('',#433,#434,#216,.T.);
#522=EDGE_CURVE('',#434,#435,#217,.T.);
#523=EDGE_CURVE('',#435,#426,#218,.T.);
#524=EDGE_CURVE('',#436,#436,#52,.T.);
#525=EDGE_CURVE('',#437,#437,#53,.T.);
#526=EDGE_CURVE('',#438,#438,#54,.T.);
#527=EDGE_CURVE('',#439,#440,#219,.T.);
#528=EDGE_CURVE('',#439,#441,#220,.T.);
#529=EDGE_CURVE('',#441,#442,#221,.T.);
#530=EDGE_CURVE('',#442,#440,#222,.T.);
#531=EDGE_CURVE('',#443,#443,#55,.T.);
#532=EDGE_CURVE('',#444,#439,#223,.T.);
#533=EDGE_CURVE('',#444,#445,#224,.T.);
#534=EDGE_CURVE('',#445,#441,#225,.T.);
#535=EDGE_CURVE('',#443,#446,#226,.T.);
#536=EDGE_CURVE('',#446,#446,#56,.T.);
#537=EDGE_CURVE('',#440,#447,#227,.T.);
#538=EDGE_CURVE('',#448,#442,#228,.T.);
#539=EDGE_CURVE('',#448,#447,#229,.T.);
#540=EDGE_CURVE('',#445,#448,#230,.T.);
#541=EDGE_CURVE('',#444,#449,#231,.T.);
#542=EDGE_CURVE('',#449,#450,#232,.T.);
#543=EDGE_CURVE('',#450,#451,#233,.T.);
#544=EDGE_CURVE('',#451,#452,#234,.T.);
#545=EDGE_CURVE('',#452,#453,#235,.T.);
#546=EDGE_CURVE('',#454,#453,#236,.T.);
#547=EDGE_CURVE('',#455,#454,#237,.T.);
#548=EDGE_CURVE('',#456,#455,#238,.T.);
#549=EDGE_CURVE('',#456,#447,#239,.T.);
#550=EDGE_CURVE('',#457,#457,#57,.T.);
#551=EDGE_CURVE('',#458,#458,#58,.T.);
#552=EDGE_CURVE('',#459,#459,#59,.T.);
#553=EDGE_CURVE('',#460,#460,#60,.T.);
#554=EDGE_CURVE('',#461,#461,#61,.T.);
#555=EDGE_CURVE('',#462,#453,#240,.T.);
#556=EDGE_CURVE('',#463,#462,#241,.T.);
#557=EDGE_CURVE('',#454,#463,#242,.T.);
#558=EDGE_CURVE('',#464,#462,#243,.T.);
#559=EDGE_CURVE('',#464,#465,#244,.T.);
#560=EDGE_CURVE('',#465,#463,#245,.T.);
#561=EDGE_CURVE('',#466,#466,#62,.T.);
#562=EDGE_CURVE('',#456,#464,#246,.T.);
#563=EDGE_CURVE('',#455,#465,#247,.T.);
#564=EDGE_CURVE('',#466,#461,#248,.T.);
#565=EDGE_CURVE('',#467,#419,#249,.T.);
#566=EDGE_CURVE('',#467,#468,#250,.T.);
#567=EDGE_CURVE('',#420,#468,#251,.T.);
#568=EDGE_CURVE('',#469,#426,#252,.T.);
#569=EDGE_CURVE('',#469,#470,#253,.T.);
#570=EDGE_CURVE('',#427,#470,#254,.T.);
#571=EDGE_CURVE('',#468,#469,#255,.T.);
#572=EDGE_CURVE('',#470,#467,#256,.T.);
#573=EDGE_CURVE('',#471,#422,#257,.T.);
#574=EDGE_CURVE('',#471,#472,#258,.T.);
#575=EDGE_CURVE('',#423,#472,#259,.T.);
#576=EDGE_CURVE('',#473,#431,#260,.T.);
#577=EDGE_CURVE('',#473,#474,#261,.T.);
#578=EDGE_CURVE('',#432,#474,#262,.T.);
#579=EDGE_CURVE('',#472,#473,#263,.T.);
#580=EDGE_CURVE('',#474,#471,#264,.T.);
#581=EDGE_CURVE('',#475,#435,#265,.T.);
#582=EDGE_CURVE('',#475,#476,#266,.T.);
#583=EDGE_CURVE('',#476,#421,#267,.T.);
#584=EDGE_CURVE('',#476,#477,#268,.T.);
#585=EDGE_CURVE('',#477,#433,#269,.T.);
#586=EDGE_CURVE('',#477,#478,#270,.T.);
#587=EDGE_CURVE('',#478,#475,#271,.T.);
#588=EDGE_CURVE('',#479,#479,#63,.T.);
#589=EDGE_CURVE('',#479,#458,#272,.T.);
#590=EDGE_CURVE('',#480,#480,#64,.T.);
#591=EDGE_CURVE('',#480,#457,#273,.T.);
#592=EDGE_CURVE('',#481,#481,#65,.T.);
#593=EDGE_CURVE('',#481,#460,#274,.T.);
#594=EDGE_CURVE('',#482,#482,#66,.T.);
#595=EDGE_CURVE('',#482,#459,#275,.T.);
#596=EDGE_CURVE('',#478,#434,#276,.T.);
#597=EDGE_CURVE('',#450,#429,#277,.T.);
#598=EDGE_CURVE('',#451,#428,#278,.T.);
#599=EDGE_CURVE('',#452,#424,#279,.T.);
#600=EDGE_CURVE('',#449,#430,#280,.T.);
#601=EDGE_CURVE('',#437,#483,#281,.T.);
#602=EDGE_CURVE('',#483,#483,#67,.T.);
#603=EDGE_CURVE('',#425,#484,#282,.T.);
#604=EDGE_CURVE('',#484,#484,#68,.T.);
#605=EDGE_CURVE('',#436,#485,#283,.T.);
#606=EDGE_CURVE('',#485,#485,#69,.T.);
#607=EDGE_CURVE('',#438,#486,#284,.T.);
#608=EDGE_CURVE('',#486,#486,#70,.T.);
#609=EDGE_CURVE('',#487,#487,#71,.T.);
#610=EDGE_CURVE('',#487,#488,#285,.T.);
#611=EDGE_CURVE('',#488,#488,#72,.T.);
#612=EDGE_CURVE('',#489,#490,#286,.T.);
#613=EDGE_CURVE('',#489,#491,#287,.T.);
#614=EDGE_CURVE('',#492,#491,#288,.T.);
#615=EDGE_CURVE('',#490,#492,#289,.T.);
#616=EDGE_CURVE('',#490,#493,#290,.T.);
#617=EDGE_CURVE('',#494,#492,#291,.T.);
#618=EDGE_CURVE('',#493,#494,#292,.T.);
#619=EDGE_CURVE('',#493,#495,#293,.T.);
#620=EDGE_CURVE('',#496,#494,#294,.T.);
#621=EDGE_CURVE('',#495,#496,#295,.T.);
#622=EDGE_CURVE('',#495,#489,#296,.T.);
#623=EDGE_CURVE('',#491,#496,#297,.T.);
#624=EDGE_CURVE('',#497,#497,#73,.T.);
#625=EDGE_CURVE('',#497,#498,#298,.T.);
#626=EDGE_CURVE('',#498,#498,#74,.T.);
#627=EDGE_CURVE('',#499,#500,#299,.T.);
#628=EDGE_CURVE('',#499,#501,#300,.T.);
#629=EDGE_CURVE('',#502,#501,#301,.T.);
#630=EDGE_CURVE('',#500,#502,#302,.T.);
#631=EDGE_CURVE('',#500,#503,#303,.T.);
#632=EDGE_CURVE('',#504,#502,#304,.T.);
#633=EDGE_CURVE('',#503,#504,#305,.T.);
#634=EDGE_CURVE('',#503,#505,#306,.T.);
#635=EDGE_CURVE('',#506,#504,#307,.T.);
#636=EDGE_CURVE('',#505,#506,#308,.T.);
#637=EDGE_CURVE('',#505,#499,#309,.T.);
#638=EDGE_CURVE('',#501,#506,#310,.T.);
#639=ORIENTED_EDGE('',*,*,#507,.T.);
#640=ORIENTED_EDGE('',*,*,#508,.T.);
#641=ORIENTED_EDGE('',*,*,#509,.T.);
#642=ORIENTED_EDGE('',*,*,#510,.T.);
#643=ORIENTED_EDGE('',*,*,#511,.T.);
#644=ORIENTED_EDGE('',*,*,#512,.T.);
#645=ORIENTED_EDGE('',*,*,#513,.T.);
#646=ORIENTED_EDGE('',*,*,#514,.T.);
#647=ORIENTED_EDGE('',*,*,#515,.T.);
#648=ORIENTED_EDGE('',*,*,#516,.T.);
#649=ORIENTED_EDGE('',*,*,#517,.T.);
#650=ORIENTED_EDGE('',*,*,#518,.T.);
#651=ORIENTED_EDGE('',*,*,#519,.T.);
#652=ORIENTED_EDGE('',*,*,#520,.T.);
#653=ORIENTED_EDGE('',*,*,#521,.T.);
#654=ORIENTED_EDGE('',*,*,#522,.T.);
#655=ORIENTED_EDGE('',*,*,#523,.T.);
#656=ORIENTED_EDGE('',*,*,#524,.T.);
#657=ORIENTED_EDGE('',*,*,#525,.T.);
#658=ORIENTED_EDGE('',*,*,#526,.T.);
#659=ORIENTED_EDGE('',*,*,#527,.F.);
#660=ORIENTED_EDGE('',*,*,#528,.T.);
#661=ORIENTED_EDGE('',*,*,#529,.T.);
#662=ORIENTED_EDGE('',*,*,#530,.T.);
#663=ORIENTED_EDGE('',*,*,#531,.T.);
#664=ORIENTED_EDGE('',*,*,#532,.F.);
#665=ORIENTED_EDGE('',*,*,#533,.T.);
#666=ORIENTED_EDGE('',*,*,#534,.T.);
#667=ORIENTED_EDGE('',*,*,#528,.F.);
#668=ORIENTED_EDGE('',*,*,#531,.F.);
#669=ORIENTED_EDGE('',*,*,#535,.T.);
#670=ORIENTED_EDGE('',*,*,#536,.T.);
#671=ORIENTED_EDGE('',*,*,#535,.F.);
#672=ORIENTED_EDGE('',*,*,#537,.F.);
#673=ORIENTED_EDGE('',*,*,#530,.F.);
#674=ORIENTED_EDGE('',*,*,#538,.F.);
#675=ORIENTED_EDGE('',*,*,#539,.T.);
#676=ORIENTED_EDGE('',*,*,#540,.T.);
#677=ORIENTED_EDGE('',*,*,#538,.T.);
#678=ORIENTED_EDGE('',*,*,#529,.F.);
#679=ORIENTED_EDGE('',*,*,#534,.F.);
#680=ORIENTED_EDGE('',*,*,#541,.T.);
#681=ORIENTED_EDGE('',*,*,#542,.T.);
#682=ORIENTED_EDGE('',*,*,#543,.T.);
#683=ORIENTED_EDGE('',*,*,#544,.T.);
#684=ORIENTED_EDGE('',*,*,#545,.T.);
#685=ORIENTED_EDGE('',*,*,#546,.F.);
#686=ORIENTED_EDGE('',*,*,#547,.F.);
#687=ORIENTED_EDGE('',*,*,#548,.F.);
#688=ORIENTED_EDGE('',*,*,#549,.T.);
#689=ORIENTED_EDGE('',*,*,#539,.F.);
#690=ORIENTED_EDGE('',*,*,#540,.F.);
#691=ORIENTED_EDGE('',*,*,#533,.F.);
#692=ORIENTED_EDGE('',*,*,#536,.F.);
#693=ORIENTED_EDGE('',*,*,#550,.F.);
#694=ORIENTED_EDGE('',*,*,#551,.F.);
#695=ORIENTED_EDGE('',*,*,#552,.F.);
#696=ORIENTED_EDGE('',*,*,#553,.F.);
#697=ORIENTED_EDGE('',*,*,#554,.F.);
#698=ORIENTED_EDGE('',*,*,#555,.F.);
#699=ORIENTED_EDGE('',*,*,#556,.F.);
#700=ORIENTED_EDGE('',*,*,#557,.F.);
#701=ORIENTED_EDGE('',*,*,#546,.T.);
#702=ORIENTED_EDGE('',*,*,#558,.F.);
#703=ORIENTED_EDGE('',*,*,#559,.T.);
#704=ORIENTED_EDGE('',*,*,#560,.T.);
#705=ORIENTED_EDGE('',*,*,#556,.T.);
#706=ORIENTED_EDGE('',*,*,#561,.T.);
#707=ORIENTED_EDGE('',*,*,#562,.F.);
#708=ORIENTED_EDGE('',*,*,#548,.T.);
#709=ORIENTED_EDGE('',*,*,#563,.T.);
#710=ORIENTED_EDGE('',*,*,#559,.F.);
#711=ORIENTED_EDGE('',*,*,#561,.F.);
#712=ORIENTED_EDGE('',*,*,#564,.T.);
#713=ORIENTED_EDGE('',*,*,#554,.T.);
#714=ORIENTED_EDGE('',*,*,#564,.F.);
#715=ORIENTED_EDGE('',*,*,#547,.T.);
#716=ORIENTED_EDGE('',*,*,#557,.T.);
#717=ORIENTED_EDGE('',*,*,#560,.F.);
#718=ORIENTED_EDGE('',*,*,#563,.F.);
#719=ORIENTED_EDGE('',*,*,#565,.F.);
#720=ORIENTED_EDGE('',*,*,#566,.T.);
#721=ORIENTED_EDGE('',*,*,#567,.F.);
#722=ORIENTED_EDGE('',*,*,#507,.F.);
#723=ORIENTED_EDGE('',*,*,#568,.F.);
#724=ORIENTED_EDGE('',*,*,#569,.T.);
#725=ORIENTED_EDGE('',*,*,#570,.F.);
#726=ORIENTED_EDGE('',*,*,#514,.F.);
#727=ORIENTED_EDGE('',*,*,#571,.F.);
#728=ORIENTED_EDGE('',*,*,#566,.F.);
#729=ORIENTED_EDGE('',*,*,#572,.F.);
#730=ORIENTED_EDGE('',*,*,#569,.F.);
#731=ORIENTED_EDGE('',*,*,#573,.F.);
#732=ORIENTED_EDGE('',*,*,#574,.T.);
#733=ORIENTED_EDGE('',*,*,#575,.F.);
#734=ORIENTED_EDGE('',*,*,#510,.F.);
#735=ORIENTED_EDGE('',*,*,#576,.F.);
#736=ORIENTED_EDGE('',*,*,#577,.T.);
#737=ORIENTED_EDGE('',*,*,#578,.F.);
#738=ORIENTED_EDGE('',*,*,#519,.F.);
#739=ORIENTED_EDGE('',*,*,#577,.F.);
#740=ORIENTED_EDGE('',*,*,#579,.F.);
#741=ORIENTED_EDGE('',*,*,#574,.F.);
#742=ORIENTED_EDGE('',*,*,#580,.F.);
#743=ORIENTED_EDGE('',*,*,#567,.T.);
#744=ORIENTED_EDGE('',*,*,#571,.T.);
#745=ORIENTED_EDGE('',*,*,#568,.T.);
#746=ORIENTED_EDGE('',*,*,#523,.F.);
#747=ORIENTED_EDGE('',*,*,#581,.F.);
#748=ORIENTED_EDGE('',*,*,#582,.T.);
#749=ORIENTED_EDGE('',*,*,#583,.T.);
#750=ORIENTED_EDGE('',*,*,#508,.F.);
#751=ORIENTED_EDGE('',*,*,#578,.T.);
#752=ORIENTED_EDGE('',*,*,#580,.T.);
#753=ORIENTED_EDGE('',*,*,#573,.T.);
#754=ORIENTED_EDGE('',*,*,#509,.F.);
#755=ORIENTED_EDGE('',*,*,#583,.F.);
#756=ORIENTED_EDGE('',*,*,#584,.T.);
#757=ORIENTED_EDGE('',*,*,#585,.T.);
#758=ORIENTED_EDGE('',*,*,#520,.F.);
#759=ORIENTED_EDGE('',*,*,#586,.F.);
#760=ORIENTED_EDGE('',*,*,#584,.F.);
#761=ORIENTED_EDGE('',*,*,#582,.F.);
#762=ORIENTED_EDGE('',*,*,#587,.F.);
#763=ORIENTED_EDGE('',*,*,#588,.T.);
#764=ORIENTED_EDGE('',*,*,#589,.T.);
#765=ORIENTED_EDGE('',*,*,#551,.T.);
#766=ORIENTED_EDGE('',*,*,#589,.F.);
#767=ORIENTED_EDGE('',*,*,#590,.T.);
#768=ORIENTED_EDGE('',*,*,#591,.T.);
#769=ORIENTED_EDGE('',*,*,#550,.T.);
#770=ORIENTED_EDGE('',*,*,#591,.F.);
#771=ORIENTED_EDGE('',*,*,#592,.T.);
#772=ORIENTED_EDGE('',*,*,#593,.T.);
#773=ORIENTED_EDGE('',*,*,#553,.T.);
#774=ORIENTED_EDGE('',*,*,#593,.F.);
#775=ORIENTED_EDGE('',*,*,#594,.T.);
#776=ORIENTED_EDGE('',*,*,#595,.T.);
#777=ORIENTED_EDGE('',*,*,#552,.T.);
#778=ORIENTED_EDGE('',*,*,#595,.F.);
#779=ORIENTED_EDGE('',*,*,#587,.T.);
#780=ORIENTED_EDGE('',*,*,#581,.T.);
#781=ORIENTED_EDGE('',*,*,#522,.F.);
#782=ORIENTED_EDGE('',*,*,#596,.F.);
#783=ORIENTED_EDGE('',*,*,#586,.T.);
#784=ORIENTED_EDGE('',*,*,#596,.T.);
#785=ORIENTED_EDGE('',*,*,#521,.F.);
#786=ORIENTED_EDGE('',*,*,#585,.F.);
#787=ORIENTED_EDGE('',*,*,#543,.F.);
#788=ORIENTED_EDGE('',*,*,#597,.T.);
#789=ORIENTED_EDGE('',*,*,#516,.F.);
#790=ORIENTED_EDGE('',*,*,#598,.F.);
#791=ORIENTED_EDGE('',*,*,#565,.T.);
#792=ORIENTED_EDGE('',*,*,#512,.F.);
#793=ORIENTED_EDGE('',*,*,#599,.F.);
#794=ORIENTED_EDGE('',*,*,#544,.F.);
#795=ORIENTED_EDGE('',*,*,#598,.T.);
#796=ORIENTED_EDGE('',*,*,#515,.F.);
#797=ORIENTED_EDGE('',*,*,#570,.T.);
#798=ORIENTED_EDGE('',*,*,#572,.T.);
#799=ORIENTED_EDGE('',*,*,#537,.T.);
#800=ORIENTED_EDGE('',*,*,#549,.F.);
#801=ORIENTED_EDGE('',*,*,#562,.T.);
#802=ORIENTED_EDGE('',*,*,#558,.T.);
#803=ORIENTED_EDGE('',*,*,#555,.T.);
#804=ORIENTED_EDGE('',*,*,#545,.F.);
#805=ORIENTED_EDGE('',*,*,#599,.T.);
#806=ORIENTED_EDGE('',*,*,#511,.F.);
#807=ORIENTED_EDGE('',*,*,#575,.T.);
#808=ORIENTED_EDGE('',*,*,#579,.T.);
#809=ORIENTED_EDGE('',*,*,#576,.T.);
#810=ORIENTED_EDGE('',*,*,#518,.F.);
#811=ORIENTED_EDGE('',*,*,#600,.F.);
#812=ORIENTED_EDGE('',*,*,#541,.F.);
#813=ORIENTED_EDGE('',*,*,#532,.T.);
#814=ORIENTED_EDGE('',*,*,#527,.T.);
#815=ORIENTED_EDGE('',*,*,#542,.F.);
#816=ORIENTED_EDGE('',*,*,#600,.T.);
#817=ORIENTED_EDGE('',*,*,#517,.F.);
#818=ORIENTED_EDGE('',*,*,#597,.F.);
#819=ORIENTED_EDGE('',*,*,#525,.F.);
#820=ORIENTED_EDGE('',*,*,#601,.T.);
#821=ORIENTED_EDGE('',*,*,#602,.T.);
#822=ORIENTED_EDGE('',*,*,#601,.F.);
#823=ORIENTED_EDGE('',*,*,#594,.F.);
#824=ORIENTED_EDGE('',*,*,#602,.F.);
#825=ORIENTED_EDGE('',*,*,#513,.F.);
#826=ORIENTED_EDGE('',*,*,#603,.T.);
#827=ORIENTED_EDGE('',*,*,#604,.T.);
#828=ORIENTED_EDGE('',*,*,#603,.F.);
#829=ORIENTED_EDGE('',*,*,#592,.F.);
#830=ORIENTED_EDGE('',*,*,#604,.F.);
#831=ORIENTED_EDGE('',*,*,#524,.F.);
#832=ORIENTED_EDGE('',*,*,#605,.T.);
#833=ORIENTED_EDGE('',*,*,#606,.T.);
#834=ORIENTED_EDGE('',*,*,#605,.F.);
#835=ORIENTED_EDGE('',*,*,#590,.F.);
#836=ORIENTED_EDGE('',*,*,#606,.F.);
#837=ORIENTED_EDGE('',*,*,#526,.F.);
#838=ORIENTED_EDGE('',*,*,#607,.T.);
#839=ORIENTED_EDGE('',*,*,#608,.T.);
#840=ORIENTED_EDGE('',*,*,#607,.F.);
#841=ORIENTED_EDGE('',*,*,#588,.F.);
#842=ORIENTED_EDGE('',*,*,#608,.F.);
#843=ORIENTED_EDGE('',*,*,#609,.F.);
#844=ORIENTED_EDGE('',*,*,#610,.T.);
#845=ORIENTED_EDGE('',*,*,#611,.T.);
#846=ORIENTED_EDGE('',*,*,#610,.F.);
#847=ORIENTED_EDGE('',*,*,#612,.F.);
#848=ORIENTED_EDGE('',*,*,#613,.T.);
#849=ORIENTED_EDGE('',*,*,#614,.F.);
#850=ORIENTED_EDGE('',*,*,#615,.F.);
#851=ORIENTED_EDGE('',*,*,#616,.F.);
#852=ORIENTED_EDGE('',*,*,#615,.T.);
#853=ORIENTED_EDGE('',*,*,#617,.F.);
#854=ORIENTED_EDGE('',*,*,#618,.F.);
#855=ORIENTED_EDGE('',*,*,#619,.F.);
#856=ORIENTED_EDGE('',*,*,#618,.T.);
#857=ORIENTED_EDGE('',*,*,#620,.F.);
#858=ORIENTED_EDGE('',*,*,#621,.F.);
#859=ORIENTED_EDGE('',*,*,#622,.F.);
#860=ORIENTED_EDGE('',*,*,#621,.T.);
#861=ORIENTED_EDGE('',*,*,#623,.F.);
#862=ORIENTED_EDGE('',*,*,#613,.F.);
#863=ORIENTED_EDGE('',*,*,#623,.T.);
#864=ORIENTED_EDGE('',*,*,#620,.T.);
#865=ORIENTED_EDGE('',*,*,#617,.T.);
#866=ORIENTED_EDGE('',*,*,#614,.T.);
#867=ORIENTED_EDGE('',*,*,#609,.T.);
#868=ORIENTED_EDGE('',*,*,#622,.T.);
#869=ORIENTED_EDGE('',*,*,#612,.T.);
#870=ORIENTED_EDGE('',*,*,#616,.T.);
#871=ORIENTED_EDGE('',*,*,#619,.T.);
#872=ORIENTED_EDGE('',*,*,#611,.F.);
#873=ORIENTED_EDGE('',*,*,#624,.F.);
#874=ORIENTED_EDGE('',*,*,#625,.T.);
#875=ORIENTED_EDGE('',*,*,#626,.T.);
#876=ORIENTED_EDGE('',*,*,#625,.F.);
#877=ORIENTED_EDGE('',*,*,#627,.F.);
#878=ORIENTED_EDGE('',*,*,#628,.T.);
#879=ORIENTED_EDGE('',*,*,#629,.F.);
#880=ORIENTED_EDGE('',*,*,#630,.F.);
#881=ORIENTED_EDGE('',*,*,#631,.F.);
#882=ORIENTED_EDGE('',*,*,#630,.T.);
#883=ORIENTED_EDGE('',*,*,#632,.F.);
#884=ORIENTED_EDGE('',*,*,#633,.F.);
#885=ORIENTED_EDGE('',*,*,#634,.F.);
#886=ORIENTED_EDGE('',*,*,#633,.T.);
#887=ORIENTED_EDGE('',*,*,#635,.F.);
#888=ORIENTED_EDGE('',*,*,#636,.F.);
#889=ORIENTED_EDGE('',*,*,#637,.F.);
#890=ORIENTED_EDGE('',*,*,#636,.T.);
#891=ORIENTED_EDGE('',*,*,#638,.F.);
#892=ORIENTED_EDGE('',*,*,#628,.F.);
#893=ORIENTED_EDGE('',*,*,#638,.T.);
#894=ORIENTED_EDGE('',*,*,#635,.T.);
#895=ORIENTED_EDGE('',*,*,#632,.T.);
#896=ORIENTED_EDGE('',*,*,#629,.T.);
#897=ORIENTED_EDGE('',*,*,#624,.T.);
#898=ORIENTED_EDGE('',*,*,#637,.T.);
#899=ORIENTED_EDGE('',*,*,#627,.T.);
#900=ORIENTED_EDGE('',*,*,#631,.T.);
#901=ORIENTED_EDGE('',*,*,#634,.T.);
#902=ORIENTED_EDGE('',*,*,#626,.F.);
#903=PLANE('',#1015);
#904=PLANE('',#1017);
#905=PLANE('',#1021);
#906=PLANE('',#1023);
#907=PLANE('',#1026);
#908=PLANE('',#1027);
#909=PLANE('',#1028);
#910=PLANE('',#1034);
#911=PLANE('',#1035);
#912=PLANE('',#1037);
#913=PLANE('',#1039);
#914=PLANE('',#1040);
#915=PLANE('',#1041);
#916=PLANE('',#1042);
#917=PLANE('',#1043);
#918=PLANE('',#1044);
#919=PLANE('',#1045);
#920=PLANE('',#1046);
#921=PLANE('',#1047);
#922=PLANE('',#1048);
#923=PLANE('',#1057);
#924=PLANE('',#1058);
#925=PLANE('',#1059);
#926=PLANE('',#1060);
#927=PLANE('',#1061);
#928=PLANE('',#1062);
#929=PLANE('',#1065);
#930=PLANE('',#1068);
#931=PLANE('',#1071);
#932=PLANE('',#1074);
#933=PLANE('',#1078);
#934=PLANE('',#1079);
#935=PLANE('',#1080);
#936=PLANE('',#1081);
#937=PLANE('',#1082);
#938=PLANE('',#1083);
#939=PLANE('',#1087);
#940=PLANE('',#1088);
#941=PLANE('',#1089);
#942=PLANE('',#1090);
#943=PLANE('',#1091);
#944=PLANE('',#1092);
#945=ADVANCED_FACE('',(#75,#31),#903,.T.);
#946=ADVANCED_FACE('',(#76,#32,#33,#34),#904,.T.);
#947=ADVANCED_FACE('',(#77,#35),#905,.T.);
#948=ADVANCED_FACE('',(#78),#906,.T.);
#949=ADVANCED_FACE('',(#79),#19,.F.);
#950=ADVANCED_FACE('',(#80),#907,.T.);
#951=ADVANCED_FACE('',(#81),#908,.T.);
#952=ADVANCED_FACE('',(#82,#36,#37,#38,#39,#40,#41),#909,.F.);
#953=ADVANCED_FACE('',(#83),#910,.T.);
#954=ADVANCED_FACE('',(#84,#42),#911,.T.);
#955=ADVANCED_FACE('',(#85),#912,.T.);
#956=ADVANCED_FACE('',(#86),#20,.F.);
#957=ADVANCED_FACE('',(#87),#913,.T.);
#958=ADVANCED_FACE('',(#88),#914,.F.);
#959=ADVANCED_FACE('',(#89),#915,.F.);
#960=ADVANCED_FACE('',(#90),#916,.F.);
#961=ADVANCED_FACE('',(#91),#917,.F.);
#962=ADVANCED_FACE('',(#92),#918,.F.);
#963=ADVANCED_FACE('',(#93),#919,.F.);
#964=ADVANCED_FACE('',(#94),#920,.T.);
#965=ADVANCED_FACE('',(#95),#921,.T.);
#966=ADVANCED_FACE('',(#96),#922,.T.);
#967=ADVANCED_FACE('',(#97),#21,.F.);
#968=ADVANCED_FACE('',(#98),#22,.F.);
#969=ADVANCED_FACE('',(#99),#23,.F.);
#970=ADVANCED_FACE('',(#100),#24,.F.);
#971=ADVANCED_FACE('',(#101),#923,.T.);
#972=ADVANCED_FACE('',(#102),#924,.T.);
#973=ADVANCED_FACE('',(#103),#925,.T.);
#974=ADVANCED_FACE('',(#104),#926,.T.);
#975=ADVANCED_FACE('',(#105),#927,.T.);
#976=ADVANCED_FACE('',(#106),#928,.T.);
#977=ADVANCED_FACE('',(#107),#25,.F.);
#978=ADVANCED_FACE('',(#108,#43),#929,.F.);
#979=ADVANCED_FACE('',(#109),#26,.F.);
#980=ADVANCED_FACE('',(#110,#44),#930,.F.);
#981=ADVANCED_FACE('',(#111),#27,.F.);
#982=ADVANCED_FACE('',(#112,#45),#931,.F.);
#983=ADVANCED_FACE('',(#113),#28,.F.);
#984=ADVANCED_FACE('',(#114,#46),#932,.F.);
#985=ADVANCED_FACE('',(#115),#29,.F.);
#986=ADVANCED_FACE('',(#116),#933,.T.);
#987=ADVANCED_FACE('',(#117),#934,.T.);
#988=ADVANCED_FACE('',(#118),#935,.T.);
#989=ADVANCED_FACE('',(#119),#936,.T.);
#990=ADVANCED_FACE('',(#120,#47),#937,.T.);
#991=ADVANCED_FACE('',(#121,#48),#938,.F.);
#992=ADVANCED_FACE('',(#122),#30,.F.);
#993=ADVANCED_FACE('',(#123),#939,.T.);
#994=ADVANCED_FACE('',(#124),#940,.T.);
#995=ADVANCED_FACE('',(#125),#941,.T.);
#996=ADVANCED_FACE('',(#126),#942,.T.);
#997=ADVANCED_FACE('',(#127,#49),#943,.T.);
#998=ADVANCED_FACE('',(#128,#50),#944,.F.);
#999=CLOSED_SHELL('',(#945,#946,#947,#948,#949,#950,#951,#952,#953,#954,
#955,#956,#957,#958,#959,#960,#961,#962,#963,#964,#965,#966,#967,#968,#969,
#970,#971,#972,#973,#974,#975,#976,#977,#978,#979,#980,#981,#982,#983,#984));
#1000=CLOSED_SHELL('',(#985,#986,#987,#988,#989,#990,#991));
#1001=CLOSED_SHELL('',(#992,#993,#994,#995,#996,#997,#998));
#1002=DERIVED_UNIT_ELEMENT(#1004,1.);
#1003=DERIVED_UNIT_ELEMENT(#1639,-3.);
#1004=(
MASS_UNIT()
NAMED_UNIT(*)
SI_UNIT(.KILO.,.GRAM.)
);
#1005=DERIVED_UNIT((#1002,#1003));
#1006=MEASURE_REPRESENTATION_ITEM('density measure',
POSITIVE_RATIO_MEASURE(7850.),#1005);
#1007=PROPERTY_DEFINITION_REPRESENTATION(#1012,#1009);
#1008=PROPERTY_DEFINITION_REPRESENTATION(#1013,#1010);
#1009=REPRESENTATION('material name',(#1011),#1636);
#1010=REPRESENTATION('density',(#1006),#1636);
#1011=DESCRIPTIVE_REPRESENTATION_ITEM('Steel','Steel');
#1012=PROPERTY_DEFINITION('material property','material name',#1646);
#1013=PROPERTY_DEFINITION('material property','density of part',#1646);
#1014=AXIS2_PLACEMENT_3D('',#1359,#1093,#1094);
#1015=AXIS2_PLACEMENT_3D('',#1360,#1095,#1096);
#1016=AXIS2_PLACEMENT_3D('',#1374,#1103,#1104);
#1017=AXIS2_PLACEMENT_3D('',#1375,#1105,#1106);
#1018=AXIS2_PLACEMENT_3D('',#1397,#1117,#1118);
#1019=AXIS2_PLACEMENT_3D('',#1399,#1119,#1120);
#1020=AXIS2_PLACEMENT_3D('',#1401,#1121,#1122);
#1021=AXIS2_PLACEMENT_3D('',#1402,#1123,#1124);
#1022=AXIS2_PLACEMENT_3D('',#1412,#1129,#1130);
#1023=AXIS2_PLACEMENT_3D('',#1413,#1131,#1132);
#1024=AXIS2_PLACEMENT_3D('',#1419,#1136,#1137);
#1025=AXIS2_PLACEMENT_3D('',#1422,#1139,#1140);
#1026=AXIS2_PLACEMENT_3D('',#1423,#1141,#1142);
#1027=AXIS2_PLACEMENT_3D('',#1429,#1146,#1147);
#1028=AXIS2_PLACEMENT_3D('',#1431,#1149,#1150);
#1029=AXIS2_PLACEMENT_3D('',#1450,#1160,#1161);
#1030=AXIS2_PLACEMENT_3D('',#1452,#1162,#1163);
#1031=AXIS2_PLACEMENT_3D('',#1454,#1164,#1165);
#1032=AXIS2_PLACEMENT_3D('',#1456,#1166,#1167);
#1033=AXIS2_PLACEMENT_3D('',#1458,#1168,#1169);
#1034=AXIS2_PLACEMENT_3D('',#1459,#1170,#1171);
#1035=AXIS2_PLACEMENT_3D('',#1465,#1175,#1176);
#1036=AXIS2_PLACEMENT_3D('',#1472,#1180,#1181);
#1037=AXIS2_PLACEMENT_3D('',#1473,#1182,#1183);
#1038=AXIS2_PLACEMENT_3D('',#1476,#1186,#1187);
#1039=AXIS2_PLACEMENT_3D('',#1478,#1189,#1190);
#1040=AXIS2_PLACEMENT_3D('',#1479,#1191,#1192);
#1041=AXIS2_PLACEMENT_3D('',#1485,#1196,#1197);
#1042=AXIS2_PLACEMENT_3D('',#1491,#1201,#1202);
#1043=AXIS2_PLACEMENT_3D('',#1494,#1205,#1206);
#1044=AXIS2_PLACEMENT_3D('',#1500,#1210,#1211);
#1045=AXIS2_PLACEMENT_3D('',#1506,#1215,#1216);
#1046=AXIS2_PLACEMENT_3D('',#1509,#1219,#1220);
#1047=AXIS2_PLACEMENT_3D('',#1515,#1224,#1225);
#1048=AXIS2_PLACEMENT_3D('',#1519,#1228,#1229);
#1049=AXIS2_PLACEMENT_3D('',#1523,#1232,#1233);
#1050=AXIS2_PLACEMENT_3D('',#1525,#1234,#1235);
#1051=AXIS2_PLACEMENT_3D('',#1527,#1237,#1238);
#1052=AXIS2_PLACEMENT_3D('',#1529,#1239,#1240);
#1053=AXIS2_PLACEMENT_3D('',#1531,#1242,#1243);
#1054=AXIS2_PLACEMENT_3D('',#1533,#1244,#1245);
#1055=AXIS2_PLACEMENT_3D('',#1535,#1247,#1248);
#1056=AXIS2_PLACEMENT_3D('',#1537,#1249,#1250);
#1057=AXIS2_PLACEMENT_3D('',#1539,#1252,#1253);
#1058=AXIS2_PLACEMENT_3D('',#1541,#1255,#1256);
#1059=AXIS2_PLACEMENT_3D('',#1542,#1257,#1258);
#1060=AXIS2_PLACEMENT_3D('',#1545,#1261,#1262);
#1061=AXIS2_PLACEMENT_3D('',#1547,#1264,#1265);
#1062=AXIS2_PLACEMENT_3D('',#1549,#1267,#1268);
#1063=AXIS2_PLACEMENT_3D('',#1550,#1269,#1270);
#1064=AXIS2_PLACEMENT_3D('',#1553,#1272,#1273);
#1065=AXIS2_PLACEMENT_3D('',#1554,#1274,#1275);
#1066=AXIS2_PLACEMENT_3D('',#1555,#1276,#1277);
#1067=AXIS2_PLACEMENT_3D('',#1558,#1279,#1280);
#1068=AXIS2_PLACEMENT_3D('',#1559,#1281,#1282);
#1069=AXIS2_PLACEMENT_3D('',#1560,#1283,#1284);
#1070=AXIS2_PLACEMENT_3D('',#1563,#1286,#1287);
#1071=AXIS2_PLACEMENT_3D('',#1564,#1288,#1289);
#1072=AXIS2_PLACEMENT_3D('',#1565,#1290,#1291);
#1073=AXIS2_PLACEMENT_3D('',#1568,#1293,#1294);
#1074=AXIS2_PLACEMENT_3D('',#1569,#1295,#1296);
#1075=AXIS2_PLACEMENT_3D('',#1570,#1297,#1298);
#1076=AXIS2_PLACEMENT_3D('',#1572,#1299,#1300);
#1077=AXIS2_PLACEMENT_3D('',#1575,#1302,#1303);
#1078=AXIS2_PLACEMENT_3D('',#1576,#1304,#1305);
#1079=AXIS2_PLACEMENT_3D('',#1585,#1310,#1311);
#1080=AXIS2_PLACEMENT_3D('',#1591,#1315,#1316);
#1081=AXIS2_PLACEMENT_3D('',#1597,#1320,#1321);
#1082=AXIS2_PLACEMENT_3D('',#1600,#1324,#1325);
#1083=AXIS2_PLACEMENT_3D('',#1601,#1326,#1327);
#1084=AXIS2_PLACEMENT_3D('',#1602,#1328,#1329);
#1085=AXIS2_PLACEMENT_3D('',#1604,#1330,#1331);
#1086=AXIS2_PLACEMENT_3D('',#1607,#1333,#1334);
#1087=AXIS2_PLACEMENT_3D('',#1608,#1335,#1336);
#1088=AXIS2_PLACEMENT_3D('',#1617,#1341,#1342);
#1089=AXIS2_PLACEMENT_3D('',#1623,#1346,#1347);
#1090=AXIS2_PLACEMENT_3D('',#1629,#1351,#1352);
#1091=AXIS2_PLACEMENT_3D('',#1632,#1355,#1356);
#1092=AXIS2_PLACEMENT_3D('',#1633,#1357,#1358);
#1093=DIRECTION('axis',(0.,0.,1.));
#1094=DIRECTION('refdir',(1.,0.,0.));
#1095=DIRECTION('center_axis',(0.,0.,1.));
#1096=DIRECTION('ref_axis',(1.,0.,0.));
#1097=DIRECTION('',(0.,-1.,0.));
#1098=DIRECTION('',(1.,0.,0.));
#1099=DIRECTION('',(0.,-1.,0.));
#1100=DIRECTION('',(1.,0.,0.));
#1101=DIRECTION('',(0.,1.,0.));
#1102=DIRECTION('',(-1.,0.,0.));
#1103=DIRECTION('center_axis',(0.,0.,-1.));
#1104=DIRECTION('ref_axis',(1.,0.,0.));
#1105=DIRECTION('center_axis',(0.,0.,1.));
#1106=DIRECTION('ref_axis',(1.,0.,0.));
#1107=DIRECTION('',(0.,1.,0.));
#1108=DIRECTION('',(-1.,0.,0.));
#1109=DIRECTION('',(0.,-1.,0.));
#1110=DIRECTION('',(1.,0.,0.));
#1111=DIRECTION('',(0.,1.,0.));
#1112=DIRECTION('',(-1.,0.,0.));
#1113=DIRECTION('',(0.,-1.,0.));
#1114=DIRECTION('',(-1.,0.,0.));
#1115=DIRECTION('',(0.,1.,0.));
#1116=DIRECTION('',(1.,0.,0.));
#1117=DIRECTION('center_axis',(0.,0.,-1.));
#1118=DIRECTION('ref_axis',(1.,0.,0.));
#1119=DIRECTION('center_axis',(0.,0.,-1.));
#1120=DIRECTION('ref_axis',(1.,0.,0.));
#1121=DIRECTION('center_axis',(0.,0.,-1.));
#1122=DIRECTION('ref_axis',(1.,0.,0.));
#1123=DIRECTION('center_axis',(0.,0.,1.));
#1124=DIRECTION('ref_axis',(1.,0.,0.));
#1125=DIRECTION('',(0.,1.,0.));
#1126=DIRECTION('',(1.,0.,0.));
#1127=DIRECTION('',(0.,1.,0.));
#1128=DIRECTION('',(-1.,0.,0.));
#1129=DIRECTION('center_axis',(0.,0.,-1.));
#1130=DIRECTION('ref_axis',(1.,0.,0.));
#1131=DIRECTION('center_axis',(0.,-1.,0.));
#1132=DIRECTION('ref_axis',(1.,0.,0.));
#1133=DIRECTION('',(0.,0.,1.));
#1134=DIRECTION('',(1.,0.,0.));
#1135=DIRECTION('',(0.,0.,1.));
#1136=DIRECTION('center_axis',(0.,0.,1.));
#1137=DIRECTION('ref_axis',(1.,0.,0.));
#1138=DIRECTION('',(0.,0.,-1.));
#1139=DIRECTION('center_axis',(0.,0.,-1.));
#1140=DIRECTION('ref_axis',(1.,0.,0.));
#1141=DIRECTION('center_axis',(0.,1.,0.));
#1142=DIRECTION('ref_axis',(-1.,0.,0.));
#1143=DIRECTION('',(0.,0.,-1.));
#1144=DIRECTION('',(0.,0.,1.));
#1145=DIRECTION('',(-1.,0.,0.));
#1146=DIRECTION('center_axis',(1.,0.,0.));
#1147=DIRECTION('ref_axis',(0.,1.,0.));
#1148=DIRECTION('',(0.,1.,0.));
#1149=DIRECTION('center_axis',(0.,0.,1.));
#1150=DIRECTION('ref_axis',(1.,0.,0.));
#1151=DIRECTION('',(0.,-1.,0.));
#1152=DIRECTION('',(-1.,0.,0.));
#1153=DIRECTION('',(0.,1.,0.));
#1154=DIRECTION('',(1.,0.,0.));
#1155=DIRECTION('',(0.,-1.,0.));
#1156=DIRECTION('',(-1.,0.,0.));
#1157=DIRECTION('',(0.,1.,0.));
#1158=DIRECTION('',(1.,0.,0.));
#1159=DIRECTION('',(0.,-1.,0.));
#1160=DIRECTION('center_axis',(0.,0.,-1.));
#1161=DIRECTION('ref_axis',(1.,0.,0.));
#1162=DIRECTION('center_axis',(0.,0.,-1.));
#1163=DIRECTION('ref_axis',(1.,0.,0.));
#1164=DIRECTION('center_axis',(0.,0.,-1.));
#1165=DIRECTION('ref_axis',(1.,0.,0.));
#1166=DIRECTION('center_axis',(0.,0.,-1.));
#1167=DIRECTION('ref_axis',(1.,0.,0.));
#1168=DIRECTION('center_axis',(0.,0.,-1.));
#1169=DIRECTION('ref_axis',(1.,0.,0.));
#1170=DIRECTION('center_axis',(0.,1.,0.));
#1171=DIRECTION('ref_axis',(-1.,0.,0.));
#1172=DIRECTION('',(0.,0.,-1.));
#1173=DIRECTION('',(-1.,0.,0.));
#1174=DIRECTION('',(0.,0.,1.));
#1175=DIRECTION('center_axis',(0.,0.,1.));
#1176=DIRECTION('ref_axis',(1.,0.,0.));
#1177=DIRECTION('',(0.,1.,0.));
#1178=DIRECTION('',(1.,0.,0.));
#1179=DIRECTION('',(0.,1.,0.));
#1180=DIRECTION('center_axis',(0.,0.,-1.));
#1181=DIRECTION('ref_axis',(1.,0.,0.));
#1182=DIRECTION('center_axis',(0.,-1.,0.));
#1183=DIRECTION('ref_axis',(1.,0.,0.));
#1184=DIRECTION('',(0.,0.,1.));
#1185=DIRECTION('',(0.,0.,1.));
#1186=DIRECTION('center_axis',(0.,0.,1.));
#1187=DIRECTION('ref_axis',(1.,0.,0.));
#1188=DIRECTION('',(0.,0.,-1.));
#1189=DIRECTION('center_axis',(1.,0.,0.));
#1190=DIRECTION('ref_axis',(0.,1.,0.));
#1191=DIRECTION('center_axis',(1.,0.,0.));
#1192=DIRECTION('ref_axis',(0.,-1.,0.));
#1193=DIRECTION('',(0.,0.,1.));
#1194=DIRECTION('',(0.,-1.,0.));
#1195=DIRECTION('',(0.,0.,-1.));
#1196=DIRECTION('center_axis',(-1.,0.,0.));
#1197=DIRECTION('ref_axis',(0.,1.,0.));
#1198=DIRECTION('',(0.,0.,1.));
#1199=DIRECTION('',(0.,1.,0.));
#1200=DIRECTION('',(0.,0.,-1.));
#1201=DIRECTION('center_axis',(0.,0.,-1.));
#1202=DIRECTION('ref_axis',(-1.,0.,0.));
#1203=DIRECTION('',(-1.,0.,0.));
#1204=DIRECTION('',(1.,0.,0.));
#1205=DIRECTION('center_axis',(0.,1.,0.));
#1206=DIRECTION('ref_axis',(1.,0.,0.));
#1207=DIRECTION('',(0.,0.,1.));
#1208=DIRECTION('',(1.,0.,0.));
#1209=DIRECTION('',(0.,0.,-1.));
#1210=DIRECTION('center_axis',(0.,-1.,0.));
#1211=DIRECTION('ref_axis',(-1.,0.,0.));
#1212=DIRECTION('',(0.,0.,1.));
#1213=DIRECTION('',(-1.,0.,0.));
#1214=DIRECTION('',(0.,0.,-1.));
#1215=DIRECTION('center_axis',(0.,0.,-1.));
#1216=DIRECTION('ref_axis',(-1.,0.,0.));
#1217=DIRECTION('',(0.,-1.,0.));
#1218=DIRECTION('',(0.,1.,0.));
#1219=DIRECTION('center_axis',(0.,-1.,0.));
#1220=DIRECTION('ref_axis',(1.,0.,0.));
#1221=DIRECTION('',(0.,0.,1.));
#1222=DIRECTION('',(1.,0.,0.));
#1223=DIRECTION('',(0.,0.,1.));
#1224=DIRECTION('center_axis',(-1.,0.,0.));
#1225=DIRECTION('ref_axis',(0.,-1.,0.));
#1226=DIRECTION('',(0.,-1.,0.));
#1227=DIRECTION('',(0.,0.,1.));
#1228=DIRECTION('center_axis',(0.,0.,1.));
#1229=DIRECTION('ref_axis',(1.,0.,0.));
#1230=DIRECTION('',(-1.,0.,0.));
#1231=DIRECTION('',(0.,1.,0.));
#1232=DIRECTION('center_axis',(0.,0.,1.));
#1233=DIRECTION('ref_axis',(1.,0.,0.));
#1234=DIRECTION('center_axis',(0.,0.,1.));
#1235=DIRECTION('ref_axis',(1.,0.,0.));
#1236=DIRECTION('',(0.,0.,-1.));
#1237=DIRECTION('center_axis',(0.,0.,1.));
#1238=DIRECTION('ref_axis',(1.,0.,0.));
#1239=DIRECTION('center_axis',(0.,0.,1.));
#1240=DIRECTION('ref_axis',(1.,0.,0.));
#1241=DIRECTION('',(0.,0.,-1.));
#1242=DIRECTION('center_axis',(0.,0.,1.));
#1243=DIRECTION('ref_axis',(1.,0.,0.));
#1244=DIRECTION('center_axis',(0.,0.,1.));
#1245=DIRECTION('ref_axis',(1.,0.,0.));
#1246=DIRECTION('',(0.,0.,-1.));
#1247=DIRECTION('center_axis',(0.,0.,1.));
#1248=DIRECTION('ref_axis',(1.,0.,0.));
#1249=DIRECTION('center_axis',(0.,0.,1.));
#1250=DIRECTION('ref_axis',(1.,0.,0.));
#1251=DIRECTION('',(0.,0.,-1.));
#1252=DIRECTION('center_axis',(1.,0.,0.));
#1253=DIRECTION('ref_axis',(0.,1.,0.));
#1254=DIRECTION('',(0.,0.,1.));
#1255=DIRECTION('center_axis',(0.,1.,0.));
#1256=DIRECTION('ref_axis',(-1.,0.,0.));
#1257=DIRECTION('center_axis',(-1.,0.,0.));
#1258=DIRECTION('ref_axis',(0.,-1.,0.));
#1259=DIRECTION('',(0.,0.,1.));
#1260=DIRECTION('',(0.,0.,1.));
#1261=DIRECTION('center_axis',(0.,1.,0.));
#1262=DIRECTION('ref_axis',(-1.,0.,0.));
#1263=DIRECTION('',(0.,0.,1.));
#1264=DIRECTION('center_axis',(1.,0.,0.));
#1265=DIRECTION('ref_axis',(0.,1.,0.));
#1266=DIRECTION('',(0.,0.,1.));
#1267=DIRECTION('center_axis',(0.,-1.,0.));
#1268=DIRECTION('ref_axis',(1.,0.,0.));
#1269=DIRECTION('center_axis',(0.,0.,1.));
#1270=DIRECTION('ref_axis',(1.,0.,0.));
#1271=DIRECTION('',(0.,0.,-1.));
#1272=DIRECTION('center_axis',(0.,0.,-1.));
#1273=DIRECTION('ref_axis',(1.,0.,0.));
#1274=DIRECTION('center_axis',(0.,0.,1.));
#1275=DIRECTION('ref_axis',(1.,0.,0.));
#1276=DIRECTION('center_axis',(0.,0.,1.));
#1277=DIRECTION('ref_axis',(1.,0.,0.));
#1278=DIRECTION('',(0.,0.,-1.));
#1279=DIRECTION('center_axis',(0.,0.,-1.));
#1280=DIRECTION('ref_axis',(1.,0.,0.));
#1281=DIRECTION('center_axis',(0.,0.,1.));
#1282=DIRECTION('ref_axis',(1.,0.,0.));
#1283=DIRECTION('center_axis',(0.,0.,1.));
#1284=DIRECTION('ref_axis',(1.,0.,0.));
#1285=DIRECTION('',(0.,0.,-1.));
#1286=DIRECTION('center_axis',(0.,0.,-1.));
#1287=DIRECTION('ref_axis',(1.,0.,0.));
#1288=DIRECTION('center_axis',(0.,0.,1.));
#1289=DIRECTION('ref_axis',(1.,0.,0.));
#1290=DIRECTION('center_axis',(0.,0.,1.));
#1291=DIRECTION('ref_axis',(1.,0.,0.));
#1292=DIRECTION('',(0.,0.,-1.));
#1293=DIRECTION('center_axis',(0.,0.,-1.));
#1294=DIRECTION('ref_axis',(1.,0.,0.));
#1295=DIRECTION('center_axis',(0.,0.,1.));
#1296=DIRECTION('ref_axis',(1.,0.,0.));
#1297=DIRECTION('center_axis',(0.,0.,1.));
#1298=DIRECTION('ref_axis',(1.,0.,0.));
#1299=DIRECTION('center_axis',(0.,0.,-1.));
#1300=DIRECTION('ref_axis',(1.,0.,0.));
#1301=DIRECTION('',(0.,0.,-1.));
#1302=DIRECTION('center_axis',(0.,0.,-1.));
#1303=DIRECTION('ref_axis',(1.,0.,0.));
#1304=DIRECTION('center_axis',(1.,0.,0.));
#1305=DIRECTION('ref_axis',(0.,1.,0.));
#1306=DIRECTION('',(0.,-1.,0.));
#1307=DIRECTION('',(0.,0.,1.));
#1308=DIRECTION('',(0.,1.,0.));
#1309=DIRECTION('',(0.,0.,1.));
#1310=DIRECTION('center_axis',(0.,-1.,0.));
#1311=DIRECTION('ref_axis',(1.,0.,0.));
#1312=DIRECTION('',(-1.,0.,0.));
#1313=DIRECTION('',(1.,0.,0.));
#1314=DIRECTION('',(0.,0.,1.));
#1315=DIRECTION('center_axis',(-1.,0.,0.));
#1316=DIRECTION('ref_axis',(0.,-1.,0.));
#1317=DIRECTION('',(0.,1.,0.));
#1318=DIRECTION('',(0.,-1.,0.));
#1319=DIRECTION('',(0.,0.,1.));
#1320=DIRECTION('center_axis',(0.,1.,0.));
#1321=DIRECTION('ref_axis',(-1.,0.,0.));
#1322=DIRECTION('',(1.,0.,0.));
#1323=DIRECTION('',(-1.,0.,0.));
#1324=DIRECTION('center_axis',(0.,0.,1.));
#1325=DIRECTION('ref_axis',(1.,0.,0.));
#1326=DIRECTION('center_axis',(0.,0.,1.));
#1327=DIRECTION('ref_axis',(1.,0.,0.));
#1328=DIRECTION('center_axis',(0.,0.,1.));
#1329=DIRECTION('ref_axis',(1.,0.,0.));
#1330=DIRECTION('center_axis',(0.,0.,-1.));
#1331=DIRECTION('ref_axis',(1.,0.,0.));
#1332=DIRECTION('',(0.,0.,-1.));
#1333=DIRECTION('center_axis',(0.,0.,-1.));
#1334=DIRECTION('ref_axis',(1.,0.,0.));
#1335=DIRECTION('center_axis',(1.,0.,0.));
#1336=DIRECTION('ref_axis',(0.,1.,0.));
#1337=DIRECTION('',(0.,-1.,0.));
#1338=DIRECTION('',(0.,0.,1.));
#1339=DIRECTION('',(0.,1.,0.));
#1340=DIRECTION('',(0.,0.,1.));
#1341=DIRECTION('center_axis',(0.,-1.,0.));
#1342=DIRECTION('ref_axis',(1.,0.,0.));
#1343=DIRECTION('',(-1.,0.,0.));
#1344=DIRECTION('',(1.,0.,0.));
#1345=DIRECTION('',(0.,0.,1.));
#1346=DIRECTION('center_axis',(-1.,0.,0.));
#1347=DIRECTION('ref_axis',(0.,-1.,0.));
#1348=DIRECTION('',(0.,1.,0.));
#1349=DIRECTION('',(0.,-1.,0.));
#1350=DIRECTION('',(0.,0.,1.));
#1351=DIRECTION('center_axis',(0.,1.,0.));
#1352=DIRECTION('ref_axis',(-1.,0.,0.));
#1353=DIRECTION('',(1.,0.,0.));
#1354=DIRECTION('',(-1.,0.,0.));
#1355=DIRECTION('center_axis',(0.,0.,1.));
#1356=DIRECTION('ref_axis',(1.,0.,0.));
#1357=DIRECTION('center_axis',(0.,0.,1.));
#1358=DIRECTION('ref_axis',(1.,0.,0.));
#1359=CARTESIAN_POINT('',(0.,0.,0.));
#1360=CARTESIAN_POINT('Origin',(-37.4751336330185,-10.1330586832626,16.));
#1361=CARTESIAN_POINT('',(-10.9211336330185,55.8669413167374,16.));
#1362=CARTESIAN_POINT('',(-10.9211336330185,45.8669413167374,16.));
#1363=CARTESIAN_POINT('',(-10.9211336330185,22.8669413167374,16.));
#1364=CARTESIAN_POINT('',(16.5248663669816,45.8669413167374,16.));
#1365=CARTESIAN_POINT('',(-32.4751336330185,45.8669413167374,16.));
#1366=CARTESIAN_POINT('',(16.5248663669816,41.7899413167374,16.));
#1367=CARTESIAN_POINT('',(16.5248663669816,45.8669413167374,16.));
#1368=CARTESIAN_POINT('',(26.5248663669816,41.7899413167374,16.));
#1369=CARTESIAN_POINT('',(-10.4751336330184,41.7899413167374,16.));
#1370=CARTESIAN_POINT('',(26.5248663669816,55.8669413167374,16.));
#1371=CARTESIAN_POINT('',(26.5248663669816,55.8669413167374,16.));
#1372=CARTESIAN_POINT('',(-42.4751336330185,55.8669413167374,16.));
#1373=CARTESIAN_POINT('',(19.1748663669816,50.8669413167374,16.));
#1374=CARTESIAN_POINT('Origin',(21.5248663669816,50.8669413167374,16.));
#1375=CARTESIAN_POINT('Origin',(-37.4751336330185,-10.1330586832626,16.));
#1376=CARTESIAN_POINT('',(-20.9211336330185,45.8669413167374,16.));
#1377=CARTESIAN_POINT('',(-20.9211336330185,55.8669413167374,16.));
#1378=CARTESIAN_POINT('',(-20.9211336330184,17.8669413167374,16.));
#1379=CARTESIAN_POINT('',(-42.4751336330185,55.8669413167374,16.));
#1380=CARTESIAN_POINT('',(-42.4751336330185,55.8669413167374,16.));
#1381=CARTESIAN_POINT('',(-42.4751336330185,-15.1330586832626,16.));
#1382=CARTESIAN_POINT('',(-42.4751336330185,-15.1330586832626,16.));
#1383=CARTESIAN_POINT('',(26.5248663669815,-15.1330586832626,16.));
#1384=CARTESIAN_POINT('',(26.5248663669816,-15.1330586832626,16.));
#1385=CARTESIAN_POINT('',(26.5248663669815,25.7899413167374,16.));
#1386=CARTESIAN_POINT('',(26.5248663669816,55.8669413167374,16.));
#1387=CARTESIAN_POINT('',(16.5248663669816,25.7899413167374,16.));
#1388=CARTESIAN_POINT('',(-5.47513363301845,25.7899413167374,16.));
#1389=CARTESIAN_POINT('',(16.5248663669816,-5.13305868326259,16.));
#1390=CARTESIAN_POINT('',(16.5248663669816,45.8669413167374,16.));
#1391=CARTESIAN_POINT('',(-32.4751336330185,-5.13305868326259,16.));
#1392=CARTESIAN_POINT('',(16.5248663669816,-5.13305868326259,16.));
#1393=CARTESIAN_POINT('',(-32.4751336330185,45.8669413167374,16.));
#1394=CARTESIAN_POINT('',(-32.4751336330185,-5.13305868326259,16.));
#1395=CARTESIAN_POINT('',(-32.4751336330185,45.8669413167374,16.));
#1396=CARTESIAN_POINT('',(19.1748663669816,-10.1330586832626,16.));
#1397=CARTESIAN_POINT('Origin',(21.5248663669816,-10.1330586832626,16.));
#1398=CARTESIAN_POINT('',(-39.8251336330185,50.8669413167374,16.));
#1399=CARTESIAN_POINT('Origin',(-37.4751336330185,50.8669413167374,16.));
#1400=CARTESIAN_POINT('',(-39.8251336330185,-10.1330586832626,16.));
#1401=CARTESIAN_POINT('Origin',(-37.4751336330185,-10.1330586832626,16.));
#1402=CARTESIAN_POINT('Origin',(30.4760818465664,-9.13305868326259,2.));
#1403=CARTESIAN_POINT('',(26.5248663669816,-13.1330586832626,2.));
#1404=CARTESIAN_POINT('',(26.5248663669816,-5.13305868326259,2.));
#1405=CARTESIAN_POINT('',(26.5248663669816,-12.1330586832626,2.));
#1406=CARTESIAN_POINT('',(34.4760818465664,-13.1330586832626,2.));
#1407=CARTESIAN_POINT('',(26.4760818465664,-13.1330586832626,2.));
#1408=CARTESIAN_POINT('',(34.4760818465664,-5.13305868326259,2.));
#1409=CARTESIAN_POINT('',(34.4760818465664,-13.1330586832626,2.));
#1410=CARTESIAN_POINT('',(34.4760818465664,-5.13305868326259,2.));
#1411=CARTESIAN_POINT('',(27.7260818465664,-9.13305868326259,2.));
#1412=CARTESIAN_POINT('Origin',(30.4760818465664,-9.13305868326259,2.));
#1413=CARTESIAN_POINT('Origin',(26.4760818465664,-13.1330586832626,0.));
#1414=CARTESIAN_POINT('',(26.5248663669816,-13.1330586832626,0.));
#1415=CARTESIAN_POINT('',(26.5248663669816,-13.1330586832626,0.));
#1416=CARTESIAN_POINT('',(34.4760818465664,-13.1330586832626,0.));
#1417=CARTESIAN_POINT('',(26.4760818465664,-13.1330586832626,0.));
#1418=CARTESIAN_POINT('',(34.4760818465664,-13.1330586832626,0.));
#1419=CARTESIAN_POINT('Origin',(30.4760818465664,-9.13305868326259,0.));
#1420=CARTESIAN_POINT('',(27.7260818465664,-9.13305868326259,0.));
#1421=CARTESIAN_POINT('',(27.7260818465664,-9.13305868326259,0.));
#1422=CARTESIAN_POINT('Origin',(30.4760818465664,-9.13305868326259,0.));
#1423=CARTESIAN_POINT('Origin',(34.4760818465664,-5.13305868326259,0.));
#1424=CARTESIAN_POINT('',(26.5248663669816,-5.13305868326259,0.));
#1425=CARTESIAN_POINT('',(26.5248663669816,-5.13305868326259,0.));
#1426=CARTESIAN_POINT('',(34.4760818465664,-5.13305868326259,0.));
#1427=CARTESIAN_POINT('',(34.4760818465664,-5.13305868326259,0.));
#1428=CARTESIAN_POINT('',(34.4760818465664,-5.13305868326259,0.));
#1429=CARTESIAN_POINT('Origin',(34.4760818465664,-13.1330586832626,0.));
#1430=CARTESIAN_POINT('',(34.4760818465664,-13.1330586832626,0.));
#1431=CARTESIAN_POINT('Origin',(-7.97513363301845,20.3669413167374,0.));
#1432=CARTESIAN_POINT('',(26.5248663669816,-15.1330586832626,0.));
#1433=CARTESIAN_POINT('',(26.5248663669816,55.8669413167374,0.));
#1434=CARTESIAN_POINT('',(-42.4751336330185,-15.1330586832626,0.));
#1435=CARTESIAN_POINT('',(26.5248663669816,-15.1330586832626,0.));
#1436=CARTESIAN_POINT('',(-42.4751336330185,55.8669413167374,0.));
#1437=CARTESIAN_POINT('',(-42.4751336330185,-15.1330586832626,0.));
#1438=CARTESIAN_POINT('',(26.5248663669816,55.8669413167374,0.));
#1439=CARTESIAN_POINT('',(-42.4751336330185,55.8669413167374,0.));
#1440=CARTESIAN_POINT('',(26.5248663669816,53.8669413167374,0.));
#1441=CARTESIAN_POINT('',(26.5248663669816,55.8669413167374,0.));
#1442=CARTESIAN_POINT('',(34.5222545372508,53.8669413167374,0.));
#1443=CARTESIAN_POINT('',(34.5222545372508,53.8669413167374,0.));
#1444=CARTESIAN_POINT('',(34.5222545372508,45.8669413167374,0.));
#1445=CARTESIAN_POINT('',(34.5222545372508,45.8669413167374,0.));
#1446=CARTESIAN_POINT('',(26.5248663669816,45.8669413167374,0.));
#1447=CARTESIAN_POINT('',(26.5222545372508,45.8669413167374,0.));
#1448=CARTESIAN_POINT('',(26.5248663669816,55.8669413167374,0.));
#1449=CARTESIAN_POINT('',(18.5248663669815,-10.1330586832626,0.));
#1450=CARTESIAN_POINT('Origin',(21.5248663669816,-10.1330586832626,0.));
#1451=CARTESIAN_POINT('',(-40.4751336330185,-10.1330586832626,0.));
#1452=CARTESIAN_POINT('Origin',(-37.4751336330185,-10.1330586832626,0.));
#1453=CARTESIAN_POINT('',(-40.4751336330185,50.8669413167374,0.));
#1454=CARTESIAN_POINT('Origin',(-37.4751336330185,50.8669413167374,0.));
#1455=CARTESIAN_POINT('',(18.5248663669816,50.8669413167374,0.));
#1456=CARTESIAN_POINT('Origin',(21.5248663669816,50.8669413167374,0.));
#1457=CARTESIAN_POINT('',(27.7722545372508,49.8669413167374,0.));
#1458=CARTESIAN_POINT('Origin',(30.5222545372508,49.8669413167374,0.));
#1459=CARTESIAN_POINT('Origin',(34.5222545372508,53.8669413167374,0.));
#1460=CARTESIAN_POINT('',(26.5248663669816,53.8669413167374,2.));
#1461=CARTESIAN_POINT('',(26.5248663669816,53.8669413167374,0.));
#1462=CARTESIAN_POINT('',(34.5222545372508,53.8669413167374,2.));
#1463=CARTESIAN_POINT('',(34.5222545372508,53.8669413167374,2.));
#1464=CARTESIAN_POINT('',(34.5222545372508,53.8669413167374,0.));
#1465=CARTESIAN_POINT('Origin',(30.5222545372508,49.8669413167374,2.));
#1466=CARTESIAN_POINT('',(26.5248663669816,45.8669413167374,2.));
#1467=CARTESIAN_POINT('',(26.5248663669816,17.3669413167374,2.));
#1468=CARTESIAN_POINT('',(34.5222545372508,45.8669413167374,2.));
#1469=CARTESIAN_POINT('',(26.5222545372508,45.8669413167374,2.));
#1470=CARTESIAN_POINT('',(34.5222545372508,45.8669413167374,2.));
#1471=CARTESIAN_POINT('',(27.7722545372508,49.8669413167374,2.));
#1472=CARTESIAN_POINT('Origin',(30.5222545372508,49.8669413167374,2.));
#1473=CARTESIAN_POINT('Origin',(26.5222545372508,45.8669413167374,0.));
#1474=CARTESIAN_POINT('',(26.5248663669816,45.8669413167374,0.));
#1475=CARTESIAN_POINT('',(34.5222545372508,45.8669413167374,0.));
#1476=CARTESIAN_POINT('Origin',(30.5222545372508,49.8669413167374,0.));
#1477=CARTESIAN_POINT('',(27.7722545372508,49.8669413167374,0.));
#1478=CARTESIAN_POINT('Origin',(34.5222545372508,45.8669413167374,0.));
#1479=CARTESIAN_POINT('Origin',(-10.9211336330185,55.8669413167374,13.));
#1480=CARTESIAN_POINT('',(-10.9211336330185,55.8669413167374,5.5));
#1481=CARTESIAN_POINT('',(-10.9211336330185,55.8669413167374,6.5));
#1482=CARTESIAN_POINT('',(-10.9211336330185,45.8669413167374,5.5));
#1483=CARTESIAN_POINT('',(-10.9211336330185,55.8669413167374,5.5));
#1484=CARTESIAN_POINT('',(-10.9211336330185,45.8669413167374,6.5));
#1485=CARTESIAN_POINT('Origin',(-20.9211336330185,45.8669413167374,13.));
#1486=CARTESIAN_POINT('',(-20.9211336330185,45.8669413167374,5.5));
#1487=CARTESIAN_POINT('',(-20.9211336330184,45.8669413167374,6.5));
#1488=CARTESIAN_POINT('',(-20.9211336330185,55.8669413167374,5.5));
#1489=CARTESIAN_POINT('',(-20.9211336330185,45.8669413167374,5.5));
#1490=CARTESIAN_POINT('',(-20.9211336330184,55.8669413167374,6.5));
#1491=CARTESIAN_POINT('Origin',(-15.9211336330185,50.8669413167374,5.5));
#1492=CARTESIAN_POINT('',(-24.1981336330185,45.8669413167374,5.5));
#1493=CARTESIAN_POINT('',(5.30186636698155,55.8669413167374,5.5));
#1494=CARTESIAN_POINT('Origin',(16.5248663669816,41.7899413167374,13.));
#1495=CARTESIAN_POINT('',(16.5248663669816,41.7899413167374,5.5));
#1496=CARTESIAN_POINT('',(16.5248663669816,41.7899413167374,6.5));
#1497=CARTESIAN_POINT('',(26.5248663669816,41.7899413167374,5.5));
#1498=CARTESIAN_POINT('',(16.5248663669816,41.7899413167374,5.5));
#1499=CARTESIAN_POINT('',(26.5248663669816,41.7899413167374,6.5));
#1500=CARTESIAN_POINT('Origin',(26.5248663669816,25.7899413167374,13.));
#1501=CARTESIAN_POINT('',(26.5248663669816,25.7899413167374,5.5));
#1502=CARTESIAN_POINT('',(26.5248663669816,25.7899413167374,6.5));
#1503=CARTESIAN_POINT('',(16.5248663669816,25.7899413167374,5.5));
#1504=CARTESIAN_POINT('',(26.5248663669816,25.7899413167374,5.5));
#1505=CARTESIAN_POINT('',(16.5248663669816,25.7899413167374,6.5));
#1506=CARTESIAN_POINT('Origin',(21.5248663669816,33.7899413167374,5.5));
#1507=CARTESIAN_POINT('',(26.5248663669816,9.32844131673741,5.5));
#1508=CARTESIAN_POINT('',(16.5248663669816,39.8284413167374,5.5));
#1509=CARTESIAN_POINT('Origin',(-32.4751336330185,45.8669413167374,0.));
#1510=CARTESIAN_POINT('',(-32.4751336330185,45.8669413167374,3.));
#1511=CARTESIAN_POINT('',(-32.4751336330185,45.8669413167374,0.));
#1512=CARTESIAN_POINT('',(16.5248663669816,45.8669413167374,3.));
#1513=CARTESIAN_POINT('',(-20.2251336330185,45.8669413167374,3.));
#1514=CARTESIAN_POINT('',(16.5248663669816,45.8669413167374,0.));
#1515=CARTESIAN_POINT('Origin',(16.5248663669816,45.8669413167374,0.));
#1516=CARTESIAN_POINT('',(16.5248663669816,-5.13305868326259,3.));
#1517=CARTESIAN_POINT('',(16.5248663669816,33.1169413167374,3.));
#1518=CARTESIAN_POINT('',(16.5248663669816,-5.13305868326259,0.));
#1519=CARTESIAN_POINT('Origin',(-7.97513363301845,20.3669413167374,3.));
#1520=CARTESIAN_POINT('',(-32.4751336330185,-5.13305868326259,3.));
#1521=CARTESIAN_POINT('',(4.27486636698155,-5.13305868326259,3.));
#1522=CARTESIAN_POINT('',(-32.4751336330185,7.61694131673741,3.));
#1523=CARTESIAN_POINT('Origin',(-37.4751336330185,-10.1330586832626,0.));
#1524=CARTESIAN_POINT('',(-40.4751336330185,-10.1330586832626,3.1));
#1525=CARTESIAN_POINT('Origin',(-37.4751336330185,-10.1330586832626,3.1));
#1526=CARTESIAN_POINT('',(-40.4751336330185,-10.1330586832626,0.));
#1527=CARTESIAN_POINT('Origin',(21.5248663669816,-10.1330586832626,0.));
#1528=CARTESIAN_POINT('',(18.5248663669815,-10.1330586832626,3.1));
#1529=CARTESIAN_POINT('Origin',(21.5248663669816,-10.1330586832626,3.1));
#1530=CARTESIAN_POINT('',(18.5248663669815,-10.1330586832626,0.));
#1531=CARTESIAN_POINT('Origin',(21.5248663669816,50.8669413167374,0.));
#1532=CARTESIAN_POINT('',(18.5248663669816,50.8669413167374,3.1));
#1533=CARTESIAN_POINT('Origin',(21.5248663669816,50.8669413167374,3.1));
#1534=CARTESIAN_POINT('',(18.5248663669816,50.8669413167374,0.));
#1535=CARTESIAN_POINT('Origin',(-37.4751336330185,50.8669413167374,0.));
#1536=CARTESIAN_POINT('',(-40.4751336330185,50.8669413167374,3.1));
#1537=CARTESIAN_POINT('Origin',(-37.4751336330185,50.8669413167374,3.1));
#1538=CARTESIAN_POINT('',(-40.4751336330185,50.8669413167374,0.));
#1539=CARTESIAN_POINT('Origin',(-32.4751336330185,-5.13305868326259,0.));
#1540=CARTESIAN_POINT('',(-32.4751336330185,-5.13305868326259,0.));
#1541=CARTESIAN_POINT('Origin',(16.5248663669816,-5.13305868326259,0.));
#1542=CARTESIAN_POINT('Origin',(-42.4751336330185,55.8669413167374,0.));
#1543=CARTESIAN_POINT('',(-42.4751336330185,-15.1330586832626,0.));
#1544=CARTESIAN_POINT('',(-42.4751336330185,55.8669413167374,0.));
#1545=CARTESIAN_POINT('Origin',(26.5248663669816,55.8669413167374,0.));
#1546=CARTESIAN_POINT('',(26.5248663669816,55.8669413167374,0.));
#1547=CARTESIAN_POINT('Origin',(26.5248663669816,-15.1330586832626,0.));
#1548=CARTESIAN_POINT('',(26.5248663669816,-15.1330586832626,0.));
#1549=CARTESIAN_POINT('Origin',(-42.4751336330185,-15.1330586832626,0.));
#1550=CARTESIAN_POINT('Origin',(-37.4751336330185,50.8669413167374,3.1));
#1551=CARTESIAN_POINT('',(-39.8251336330185,50.8669413167374,3.1));
#1552=CARTESIAN_POINT('',(-39.8251336330185,50.8669413167374,3.1));
#1553=CARTESIAN_POINT('Origin',(-37.4751336330185,50.8669413167374,3.1));
#1554=CARTESIAN_POINT('Origin',(-37.4751336330185,50.8669413167374,3.1));
#1555=CARTESIAN_POINT('Origin',(21.5248663669816,50.8669413167374,3.1));
#1556=CARTESIAN_POINT('',(19.1748663669816,50.8669413167374,3.1));
#1557=CARTESIAN_POINT('',(19.1748663669816,50.8669413167374,3.1));
#1558=CARTESIAN_POINT('Origin',(21.5248663669816,50.8669413167374,3.1));
#1559=CARTESIAN_POINT('Origin',(21.5248663669816,50.8669413167374,3.1));
#1560=CARTESIAN_POINT('Origin',(21.5248663669816,-10.1330586832626,3.1));
#1561=CARTESIAN_POINT('',(19.1748663669815,-10.1330586832626,3.1));
#1562=CARTESIAN_POINT('',(19.1748663669815,-10.1330586832626,3.1));
#1563=CARTESIAN_POINT('Origin',(21.5248663669816,-10.1330586832626,3.1));
#1564=CARTESIAN_POINT('Origin',(21.5248663669816,-10.1330586832626,3.1));
#1565=CARTESIAN_POINT('Origin',(-37.4751336330185,-10.1330586832626,3.1));
#1566=CARTESIAN_POINT('',(-39.8251336330185,-10.1330586832626,3.1));
#1567=CARTESIAN_POINT('',(-39.8251336330185,-10.1330586832626,3.1));
#1568=CARTESIAN_POINT('Origin',(-37.4751336330185,-10.1330586832626,3.1));
#1569=CARTESIAN_POINT('Origin',(-37.4751336330185,-10.1330586832626,3.1));
#1570=CARTESIAN_POINT('Origin',(-46.5000006332994,49.8669413167374,0.));
#1571=CARTESIAN_POINT('',(-49.2500006332994,49.8669413167374,2.));
#1572=CARTESIAN_POINT('Origin',(-46.5000006332994,49.8669413167374,2.));
#1573=CARTESIAN_POINT('',(-49.2500006332994,49.8669413167374,0.));
#1574=CARTESIAN_POINT('',(-49.2500006332994,49.8669413167374,0.));
#1575=CARTESIAN_POINT('Origin',(-46.5000006332994,49.8669413167374,0.));
#1576=CARTESIAN_POINT('Origin',(-42.5000006332994,45.8669413167374,0.));
#1577=CARTESIAN_POINT('',(-42.5000006332994,53.8669413167374,0.));
#1578=CARTESIAN_POINT('',(-42.5000006332994,45.8669413167374,0.));
#1579=CARTESIAN_POINT('',(-42.5000006332994,53.8669413167374,0.));
#1580=CARTESIAN_POINT('',(-42.5000006332994,53.8669413167374,2.));
#1581=CARTESIAN_POINT('',(-42.5000006332994,53.8669413167374,0.));
#1582=CARTESIAN_POINT('',(-42.5000006332994,45.8669413167374,2.));
#1583=CARTESIAN_POINT('',(-42.5000006332994,53.8669413167374,2.));
#1584=CARTESIAN_POINT('',(-42.5000006332994,45.8669413167374,0.));
#1585=CARTESIAN_POINT('Origin',(-50.5000006332994,45.8669413167374,0.));
#1586=CARTESIAN_POINT('',(-50.5000006332994,45.8669413167374,0.));
#1587=CARTESIAN_POINT('',(-42.5000006332994,45.8669413167374,0.));
#1588=CARTESIAN_POINT('',(-50.5000006332994,45.8669413167374,2.));
#1589=CARTESIAN_POINT('',(-42.5000006332994,45.8669413167374,2.));
#1590=CARTESIAN_POINT('',(-50.5000006332994,45.8669413167374,0.));
#1591=CARTESIAN_POINT('Origin',(-50.5000006332994,53.8669413167374,0.));
#1592=CARTESIAN_POINT('',(-50.5000006332994,53.8669413167374,0.));
#1593=CARTESIAN_POINT('',(-50.5000006332994,45.8669413167374,0.));
#1594=CARTESIAN_POINT('',(-50.5000006332994,53.8669413167374,2.));
#1595=CARTESIAN_POINT('',(-50.5000006332994,45.8669413167374,2.));
#1596=CARTESIAN_POINT('',(-50.5000006332994,53.8669413167374,0.));
#1597=CARTESIAN_POINT('Origin',(-42.5000006332994,53.8669413167374,0.));
#1598=CARTESIAN_POINT('',(-50.5000006332994,53.8669413167374,0.));
#1599=CARTESIAN_POINT('',(-50.5000006332994,53.8669413167374,2.));
#1600=CARTESIAN_POINT('Origin',(-46.5000006332994,49.8669413167374,2.));
#1601=CARTESIAN_POINT('Origin',(-46.5000006332994,49.8669413167374,0.));
#1602=CARTESIAN_POINT('Origin',(-46.522124929456,-9.13305868326259,0.));
#1603=CARTESIAN_POINT('',(-49.272124929456,-9.13305868326259,2.));
#1604=CARTESIAN_POINT('Origin',(-46.522124929456,-9.13305868326259,2.));
#1605=CARTESIAN_POINT('',(-49.272124929456,-9.13305868326259,0.));
#1606=CARTESIAN_POINT('',(-49.272124929456,-9.13305868326259,0.));
#1607=CARTESIAN_POINT('Origin',(-46.522124929456,-9.13305868326259,0.));
#1608=CARTESIAN_POINT('Origin',(-42.522124929456,-13.1330586832626,0.));
#1609=CARTESIAN_POINT('',(-42.522124929456,-5.13305868326259,0.));
#1610=CARTESIAN_POINT('',(-42.522124929456,-13.1330586832626,0.));
#1611=CARTESIAN_POINT('',(-42.522124929456,-5.13305868326259,0.));
#1612=CARTESIAN_POINT('',(-42.522124929456,-5.13305868326259,2.));
#1613=CARTESIAN_POINT('',(-42.522124929456,-5.13305868326259,0.));
#1614=CARTESIAN_POINT('',(-42.522124929456,-13.1330586832626,2.));
#1615=CARTESIAN_POINT('',(-42.522124929456,-5.13305868326259,2.));
#1616=CARTESIAN_POINT('',(-42.522124929456,-13.1330586832626,0.));
#1617=CARTESIAN_POINT('Origin',(-50.522124929456,-13.1330586832626,0.));
#1618=CARTESIAN_POINT('',(-50.522124929456,-13.1330586832626,0.));
#1619=CARTESIAN_POINT('',(-42.522124929456,-13.1330586832626,0.));
#1620=CARTESIAN_POINT('',(-50.522124929456,-13.1330586832626,2.));
#1621=CARTESIAN_POINT('',(-42.522124929456,-13.1330586832626,2.));
#1622=CARTESIAN_POINT('',(-50.522124929456,-13.1330586832626,0.));
#1623=CARTESIAN_POINT('Origin',(-50.522124929456,-5.13305868326259,0.));
#1624=CARTESIAN_POINT('',(-50.522124929456,-5.13305868326259,0.));
#1625=CARTESIAN_POINT('',(-50.522124929456,-13.1330586832626,0.));
#1626=CARTESIAN_POINT('',(-50.522124929456,-5.13305868326259,2.));
#1627=CARTESIAN_POINT('',(-50.522124929456,-13.1330586832626,2.));
#1628=CARTESIAN_POINT('',(-50.522124929456,-5.13305868326259,0.));
#1629=CARTESIAN_POINT('Origin',(-42.522124929456,-5.13305868326259,0.));
#1630=CARTESIAN_POINT('',(-50.522124929456,-5.13305868326259,0.));
#1631=CARTESIAN_POINT('',(-50.522124929456,-5.13305868326259,2.));
#1632=CARTESIAN_POINT('Origin',(-46.522124929456,-9.13305868326259,2.));
#1633=CARTESIAN_POINT('Origin',(-46.522124929456,-9.13305868326259,0.));
#1634=UNCERTAINTY_MEASURE_WITH_UNIT(LENGTH_MEASURE(0.01),#1638,
'DISTANCE_ACCURACY_VALUE',
'Maximum model space distance between geometric entities at asserted c
onnectivities');
#1635=UNCERTAINTY_MEASURE_WITH_UNIT(LENGTH_MEASURE(0.01),#1638,
'DISTANCE_ACCURACY_VALUE',
'Maximum model space distance between geometric entities at asserted c
onnectivities');
#1636=(
GEOMETRIC_REPRESENTATION_CONTEXT(3)
GLOBAL_UNCERTAINTY_ASSIGNED_CONTEXT((#1634))
GLOBAL_UNIT_ASSIGNED_CONTEXT((#1638,#1640,#1641))
REPRESENTATION_CONTEXT('','3D')
);
#1637=(
GEOMETRIC_REPRESENTATION_CONTEXT(3)
GLOBAL_UNCERTAINTY_ASSIGNED_CONTEXT((#1635))
GLOBAL_UNIT_ASSIGNED_CONTEXT((#1638,#1640,#1641))
REPRESENTATION_CONTEXT('','3D')
);
#1638=(
LENGTH_UNIT()
NAMED_UNIT(*)
SI_UNIT(.MILLI.,.METRE.)
);
#1639=(
LENGTH_UNIT()
NAMED_UNIT(*)
SI_UNIT($,.METRE.)
);
#1640=(
NAMED_UNIT(*)
PLANE_ANGLE_UNIT()
SI_UNIT($,.RADIAN.)
);
#1641=(
NAMED_UNIT(*)
SI_UNIT($,.STERADIAN.)
SOLID_ANGLE_UNIT()
);
#1642=SHAPE_DEFINITION_REPRESENTATION(#1643,#1644);
#1643=PRODUCT_DEFINITION_SHAPE('',$,#1646);
#1644=SHAPE_REPRESENTATION('',(#1014),#1636);
#1645=PRODUCT_DEFINITION_CONTEXT('part definition',#1650,'design');
#1646=PRODUCT_DEFINITION('2026-02-23-22-04-43-512','PCB_CASE',#1647,#1645);
#1647=PRODUCT_DEFINITION_FORMATION('',$,#1652);
#1648=PRODUCT_RELATED_PRODUCT_CATEGORY('PCB_CASE','PCB_CASE',(#1652));
#1649=APPLICATION_PROTOCOL_DEFINITION('international standard',
'automotive_design',2009,#1650);
#1650=APPLICATION_CONTEXT(
'Core Data for Automotive Mechanical Design Process');
#1651=PRODUCT_CONTEXT('part definition',#1650,'mechanical');
#1652=PRODUCT('2026-02-23-22-04-43-512','PCB_CASE',$,(#1651));
#1653=PRESENTATION_STYLE_ASSIGNMENT((#1654));
#1654=SURFACE_STYLE_USAGE(.BOTH.,#1655);
#1655=SURFACE_SIDE_STYLE('',(#1656));
#1656=SURFACE_STYLE_FILL_AREA(#1657);
#1657=FILL_AREA_STYLE('Steel - Satin',(#1658));
#1658=FILL_AREA_STYLE_COLOUR('Steel - Satin',#1659);
#1659=COLOUR_RGB('Steel - Satin',0.627450980392157,0.627450980392157,0.627450980392157);
ENDSEC;
END-ISO-10303-21;
